<svg id="Layer_1" data-name="Layer 1" xmlns="http://www.w3.org/2000/svg" width="50mm" height="60mm" viewBox="0 0 141.73 170.08"><defs><style>.cls-1{fill:#704621;}</style></defs><path class="cls-1" d="M130.38,7.36c.29-.12-.65-1-.78-1.16C129.44,6.74,130.61,7.59,130.38,7.36Z"/><polygon class="cls-1" points="128.91 12.74 128.62 12.31 128.98 13.7 128.91 12.74"/><path class="cls-1" d="M125.69,15.82c1.79,1.24.92-1.37,2-1.38l.43.26-.94-1.49C126.7,14.08,126.59,15.77,125.69,15.82Z"/><path class="cls-1" d="M120.73,14.16c.69.49.13.87.59-.2l-.22-.08A1.53,1.53,0,0,1,120.73,14.16Z"/><path class="cls-1" d="M121.1,13.88c.29-.37-.72-.29,0,0Z"/><path class="cls-1" d="M119.88,15.75l-.09-1c-.43-.26-.9.05-1-.35C118.61,15.17,119.05,15.43,119.88,15.75Z"/><path class="cls-1" d="M120.56,17.28v-.45C120.38,16.72,120.27,16.73,120.56,17.28Z"/><path class="cls-1" d="M120.58,15.87l0,1c.31.18.8.67.06-.4C121,16.93,120.69,16.4,120.58,15.87Z"/><path class="cls-1" d="M121.08,15.83c.57.09,1.1,0,1.18,1C122.9,15.74,121.72,14.78,121.08,15.83Z"/><path class="cls-1" d="M127.07,17.56l.77.13-.22-.79C127.73,17.29,126.58,17.1,127.07,17.56Z"/><path class="cls-1" d="M116.35,17.7a15.16,15.16,0,0,0,1.45,1.09l0-.69A2.06,2.06,0,0,1,116.35,17.7Z"/><path class="cls-1" d="M117.8,18.79l.06,1C118.36,19.47,118.18,19.12,117.8,18.79Z"/><polygon class="cls-1" points="122.15 19.05 121.79 17.08 122.01 19.22 122.15 19.05"/><polygon class="cls-1" points="114.45 19.52 113.98 18.5 114.61 20.11 114.45 19.52"/><path class="cls-1" d="M113.34,20.88c-.41-.82-1.33-.76-1.49-1.35-.23.44,0,1.26.24,2C112.1,21,112.46,20.76,113.34,20.88Z"/><path class="cls-1" d="M112.36,22.64a5.37,5.37,0,0,0-.27-1.12A2.77,2.77,0,0,0,112.36,22.64Z"/><path class="cls-1" d="M116.88,20.5a2.32,2.32,0,0,0-1.3-.54l1.09.72Z"/><path class="cls-1" d="M116.71,20.7l0,0c-.22.19-.39.31-.46.36Z"/><path class="cls-1" d="M116.93,20.46l-.05,0C117,20.57,117,20.59,116.93,20.46Z"/><path class="cls-1" d="M120.06,19.49c.22.79.17,1.93,1.51,2.13C121.16,20.8,120.39,20.68,120.06,19.49Z"/><path class="cls-1" d="M118.3,21.35l.72-.3c-.25-.23-.69-.49-.8-.88Z"/><polygon class="cls-1" points="118.34 21.89 118.3 21.35 118.03 21.47 118.34 21.89"/><path class="cls-1" d="M114.1,22.6a1.29,1.29,0,0,1-.25,1.23,2.5,2.5,0,0,0,1.16-.62C114.77,22.89,114.38,22.25,114.1,22.6Z"/><path class="cls-1" d="M115.45,21.76a.33.33,0,0,0,0,.1C115.56,21.9,115.61,21.9,115.45,21.76Z"/><path class="cls-1" d="M111.17,26.56l.21.12-.15-.16Z"/><path class="cls-1" d="M115.23,23.33c.4,0,.31-.4.15-.8a1.62,1.62,0,0,1-.37.68C115.12,23.36,115.2,23.45,115.23,23.33Z"/><path class="cls-1" d="M112,23.82a4.7,4.7,0,0,0,.88.11C112.51,23.76,111.83,23.55,112,23.82Z"/><path class="cls-1" d="M115.12,21.68s0-.05,0-.07C114.85,21.49,115,21.57,115.12,21.68Z"/><path class="cls-1" d="M115.12,21.68a3.55,3.55,0,0,0,.26.85,1.65,1.65,0,0,0,.07-.67A2.8,2.8,0,0,1,115.12,21.68Z"/><path class="cls-1" d="M116.26,33.14c-.82-.87-1-2.22.37-1.84-.16-1.12-3.26-3.53-5.25-4.62a2.14,2.14,0,0,1,.7,1.72c.64.27,2.19-.08,2.54,1.1-.22,1.11-.84.27-1.61.16,1.33.75.7,2.37,2.41,3.74l0-1.13C115.7,32.5,115.88,33.09,116.26,33.14Z"/><path class="cls-1" d="M112.42,25.78l.1-.31a4,4,0,0,1-1.87-.39,2.31,2.31,0,0,0,.58,1.44l1.13-.93Z"/><path class="cls-1" d="M113.44,24.51c.76,1.07.66,2,2,2.63.54-.68-.34-1.18-.38-1.95-.76,1.22-.23-.79-1.47-.58a1.7,1.7,0,0,1,.3-.78,4,4,0,0,1-.94.1l.08,0h0v0c.16.07.24.13.13.11a.06.06,0,0,1,0,0,3.25,3.25,0,0,1,.31.38c-.48.1-.29-.19-.31-.38L113,24h0l-.47,1.51C112.85,25.38,113.08,25.08,113.44,24.51Z"/><path class="cls-1" d="M123,24.12a1,1,0,0,1-.25-.18C122.81,24.12,122.86,24.22,123,24.12Z"/><path class="cls-1" d="M122.05,24c0-.2-.36-.62,0-.76.47.07.43.44.74.73-.1-.38-.16-1.15-1-1.15l0,.19a4.73,4.73,0,0,1-2.42-.74A16.11,16.11,0,0,0,122.05,24Z"/><path class="cls-1" d="M118,24.49l-.37,1.27,1.21.37-.5-.45C119,25.4,118.27,24.92,118,24.49Z"/><polygon class="cls-1" points="110.61 26.21 109.75 25.15 110.65 26.98 110.61 26.21"/><polygon class="cls-1" points="109.67 27.42 108.86 26.55 109.09 27.34 109.67 27.42"/><path class="cls-1" d="M65.41,101.42l.06.47A1,1,0,0,0,65.41,101.42Z"/><path class="cls-1" d="M66.94,99.52l-.42-.4C66.7,99.41,66.87,99.59,66.94,99.52Z"/><path class="cls-1" d="M84.44,55c-1.17-.35-2.83-1.06-1.79-.23l1.09.74C83.79,55.09,84.08,55,84.44,55Z"/><path class="cls-1" d="M74,79.48l.4.13-.75-1Z"/><path class="cls-1" d="M77.94,83.14l-1.07,0A2.92,2.92,0,0,0,77.94,83.14Z"/><path class="cls-1" d="M58.56,112.92l.84,1.1C59.76,113.52,59.06,113.35,58.56,112.92Z"/><path class="cls-1" d="M99.28,39.05A2,2,0,0,0,98,39.3C98.87,39.43,100,39.89,99.28,39.05Z"/><path class="cls-1" d="M55,92.28a1.14,1.14,0,0,0,.45.72A.9.9,0,0,0,55,92.28Z"/><path class="cls-1" d="M97.12,40.22c.15,0,.25,0,.38,0a1.26,1.26,0,0,1,.47-1C97.3,39.21,96.74,39.3,97.12,40.22Z"/><path class="cls-1" d="M30.59,152.27a1.21,1.21,0,0,1-.19,0C30.54,152.38,30.58,152.35,30.59,152.27Z"/><path class="cls-1" d="M12,157.51a1.48,1.48,0,0,1,.22-.56C12.05,157,12,157.15,12,157.51Z"/><path class="cls-1" d="M105,31.43c.17-.29-.07-.14,0,0Z"/><path class="cls-1" d="M109.81,33.86a1.57,1.57,0,0,0,.37.54A2,2,0,0,1,109.81,33.86Z"/><path class="cls-1" d="M100.91,48.05l0,0C101.14,48.17,101.09,48.15,100.91,48.05Z"/><path class="cls-1" d="M105.77,31.49a1.78,1.78,0,0,0-.57,0A1.69,1.69,0,0,0,105.77,31.49Z"/><path class="cls-1" d="M105.28,31.11l.29-.11C105.44,30.82,105.31,30.75,105.28,31.11Z"/><path class="cls-1" d="M104.74,31.8a.87.87,0,0,1,.46-.28.25.25,0,0,1-.2-.09A3,3,0,0,1,104.74,31.8Z"/><path class="cls-1" d="M41.88,128.65h-.14C42,129.21,42,129,41.88,128.65Z"/><path class="cls-1" d="M89.21,70.12s0-.05,0-.07h-.07Z"/><path class="cls-1" d="M89.22,71.62c-.92-1.42-.59-1.5-.1-1.56L86,67.91Z"/><path class="cls-1" d="M62.19,106.31l1.41.06c1,1.92,0,2.07,1.78,2.46-3.19-2.53,1.53-2.71-1.66-5.24l1,.09c-.12.1.06.26-.06.36,2.17.36-1.9-2.38-.64-3.09a1.07,1.07,0,0,1,1.39.47L65.22,100c.25-.19.77.3.53.49L66.43,99l.09.08a14,14,0,0,1-1-2c.7,0,.22.42.69.65l-.26-1.3c1,.37,1.43,1.56,1,2,3.71,1.83-.39-1.21,2.57-1.12l-.1,1c2.16,1,1.89,0,3.59.15-.73-.29-4-.77-4.23-2.13.41,0,.74-.21.4-1.11,1.15.89,1.17.28,1.49-.26l1.49,1.22c0-.87-.83-1.43-1.27-2.27.61-.47,1.87.33,3,1,1-.75-2.39-.82-1.8-2.16,1.19-.32,1-1.35.83-3,1-.14.85.82,1.43,1l-.82-1.44c.12-.1.46.24.63.4-.14-.78-1.47-1.22-1.38-2.19-1.52-1.5,3.46.61,2.23-1.67.58.15.84.83,1.47,1.23a10.6,10.6,0,0,0-1.08-3.85l1.59,0C75.3,82.76,74.55,81,74,79.48c-.7-.24-1.31-.46-1.63-.53l0-1.65c.34.08.77.6,1.26,1.27q-.11-.25-.21-.48c.84.09,1.55,1,2.17,1.91l-1.21-.39a11.67,11.67,0,0,0,2.44,2.68,1,1,0,0,1-.14-.65,2.21,2.21,0,0,0,.55.58c.19.09-.06-.28-.31-.75l1.84,1.12L78.14,82l2.09-.45c-.92-2.28-2.72-5.11-2.18-7.14.9,1.36,1.9,1.71,3.32,2.91-1.85-.86-.28,1.67-1.21,2.18.48-.27,1.09.38,1.25.68l-.28-2.5c1.15,1,1.12.44,1.9.5-2.54-1.66-.7-2.28-1-3.42.8.62,1.48,1.41.74,1.92,2.35.71-1.92-3.21.17-2.7-.12.18-.32.16,0,.56-.36-1,1-1.43,1.45-.65l-.12.18c1.18-.85,2.78-3.27,1-5.08.26.2,2.22,2.13,2.56,2.53L83,64c1.53,1.59,6,4.33,6.23,6,.45,0,1-.14.87-1.17-.39,0-2.78-1.63-2.73-2,2.42.94,1.38.4,3.66,1-.59,0-2.94-2.58-2.5-2.92.33.4,2.6,2.18,2.74,2.57l-1.67-3.23c.24.66,2.13,1.92,3,2.32-.59-.33.81-.84.79-1.33l-1-.08c1.38-.81-2.59-4.25-1.46-5.28.4.59,2.93,3.16,3.75,2.86-1.07-1.4-5.22-6.66-5.32-8.56l.91.45-.16-1.52a86.06,86.06,0,0,1,5.39,9.33c1,.09,1,.65,1.47-.05a1.13,1.13,0,0,1,.63,1.5l1.75-1.09c-1.57-1.28-.52-2.48-1.82-3.54l.14,3c-1.56-1.25-3.48-4.74-2.26-5.55.84.27,2.5,2.59,3,3-.4-.59-.1-1.87.36-1.64l.4,1.16c1.09-.07-1.14-2.73.93-2.14.31-.16,2.58,1,1.73.17A47.09,47.09,0,0,1,93.43,50a16.7,16.7,0,0,1,3.88.67c1.7.82,2.65,3.49,4.11,4.19a4,4,0,0,1-.78-1.3c.58.06,1.17,1.25,1.48.53-1.43-1.46,1.14-1-1-1.42,0-.93.83-.29,1.33-1-1.16-.68-2.81-3.6-2.75-4.54a5.09,5.09,0,0,0,1.25.87c1.13-1,2.38-.93,3.34-1.94.45.24,1.35.15,1.8,1-.13-.39-.51-1-.25-1.34,1.86.59-.45.88,1.54,1.86-.84-.84-.45-1.92-.58-2.87-1.47-1.12-1.22.79-1.09,1.74-1.86-1.72-3.07-4.3-2.93-6.17.34-1.29,1.54.74,1.42.35,1.81-1.29-2-4.39.62-4.47,1.67.58,2.36,2.18,3.31,2.86-.2,1.11-1.73.36-2.13.88l1.1-.06c.18.59,0,1.33-.53,1.26,1.48.56,2.71-2.51,4.85-2.79-.18-.59-.23-1.35-.87-1.62l-.2.54c-1.29-.55-.61-2-1.52-1.9-.16-1.15-.64-2.72.6-2.94l1.45,1.14c-.4-.36-1.24-.28-1,.31-.29-.87,2.87.61,1.46-1.39l-1.41-.38c-.17-1.15-.95-3.15.09-3.4-1.59-1,0,.3-2-.72,2.28,1.44-1.68,1.58.93,2.86-2.23-1.24-1.54.09-3.65-.74.45.4,1,.58.31.92a3.45,3.45,0,0,1,.27.49h-.07l.08,0c0,.09.05.1,0,0a2.37,2.37,0,0,1,.93.36c.75,1.23-.12,2.06.12,2.85-.52.12-.37-.62-1-.89l.36,1.18c-1-.88-2.43-.67-2.28-2l-.7.66c-.93-.11-1.67.25-1.59,1-.51.13.32,1.85-.18.84l-.41,1.66-.26-.22c-1.13,1-.43,3.73-3.36,3.31-.09.59-.13,1.25-1,1.59l-1-.67c-.13.74-2.14.63-1.43,1.65-2.78-1.6-2.58,1.84-3.74,2.3l1.1,1a4,4,0,0,0-.94,2.47l1,.85c.27,1.35-2.13.93-2.9,2-.32-.41,0-.56.39-.53-3.33-.86-.51,3.93-3.1,3.52.14.59-.15.67-.57.64a.13.13,0,0,0,0-.12l-.1.1c-.28,0-.59-.09-.86-.1a2.89,2.89,0,0,0,.81.16,2.22,2.22,0,0,0-.31,1.17l-1.2-.82s0,.06,0,.1c-.67,0,.3.69,1.26,1.24a3.35,3.35,0,0,0,.31,1c-2-1.29-.1,1.31-2.27,0,.74,1-.64,2.12,1.16,3.95-.27-.21-.46-.22-.34-.4-.51.15-1,.29-.74,1.06L81.57,61.4l1.24,2.35a3,3,0,0,1-2.58-1.88c.73,2.51-.13,1.42.74,3.74l-.87-.81c-.24.36.52,1.92-.39,1.48-2.35-.71-3.32,3.47-6.54,4,3,1.86-2-.11.08,1.7-.72-.42-1.3-.44-1.61-1.22-.17,1.51-2.22.66-1,2.79-.74-.41-.77-1-1.23-1.19.07.19.3.77-.16.56s-.42-.59-.58-1c-.71,1.1,1.18,2.81,3,4.4-1.29-.21-1.38.15-.46,1.5-.75-.31-1.62-.53-1.34-1.34-.37.28-2.63,1.43-1.17,2.67-.47-.19-.51.4-.41.64-.73.71-.92.67-1.41,1.56l.42,0c1.56,1.75-.11,1-.39,1.78L66.72,83c-2.45.42.13,1.12-2.48,1.37l1.19.82c2.33,2-2.43.13-2.15,1.7l.88.2c.48,1.11-4.31-1.32-5-1.1-.29-.06-.22-.42-.27-.68-2.38.07,1.37,1.31,1,2.47-.94-.46-1.88-1.8-2.5-1.31-.88-.2,1.24,3.75-.93,3.4.76.29,1.51.59,1.66,1.36-.26.81-3.66-.06-2.14,2a1.62,1.62,0,0,1-.58-.25c.14.87-.36,2.23.49,3.34-4.32-2.54-.38,4.5-4,1.73L51,99.73l-.35-.32c-1,.79-.33,1.8.3,2.8-.41,0-.64-.38-.82-.54-1.78.88-1.73,1.14-.76,3.68L48,104.6c.46.83-3.4.69-3,3.12a1.66,1.66,0,0,1-.42-.55c.25,2.59-6.1,1.4-2.1,5.14l.35,1.82c1.3-1.12,1.78,1.56,2.9,1.52-.11.72-2.3.44-2.06-.38l.29,0c-2.14-1.87-2,1.12-3.55,0-1.77,2.76-4.91,4.48-6.72,7l2,.94L35,124c-.58-.06-1.63-.66-1.13-1.24-1.25-.37.14,1.65.53,1.93-1.58.74-1.79-1.92-2.09-1.57l-.22.61.29,0c.46.92,1.22,1.49.62,2.19-.69.24-1.29-.51-1.49-.37-.13-.09-.23-.06-.25.26l-.91,1,1.74.52c.37,1-.79,1,1.19,1.58-1.51-.47-2.44.43-3.13,1.43s-1.11,2.12-1.65,2.1a2.3,2.3,0,0,1-.56,2.85c.44,0,2.15.92,1.47,1.53-3.19-2.47-2.34.4-5.16-.58,2,.51-1,2.37,1.86,3-.67.44-1.29-.78-2.39-.82.34,2.3-2.94,2.72-3.65,4.84.42.31,1.3.43,1.72,1.25L19,144.14c0,.5,2.36,2,.4,1.65.43.14,1.09.35,1.08.69-2.22,1.12-2.94,3.23-3.87,5.21s-2.08,3.84-5.27,4.45c1.18,0,1.07.41.87.81.36-.12,1.11.68,1.76,1l-2.64.52c1.53,1.3-.89,1.73.65,2.86v-.66c1.53,1.79,4.82,1.64,7.23,3.21-1.75-2,4.38,0,2-3,.66,0,.66.7,1.31.91-.87-.94-.87-1.43,0-1.82l.21.24c.89-2,2.39-2.22,4.38-3.89l-1.31-.59c.44-.35.88-.21,1.32-.23-1.51-1.65-.9,1.19-2.62-.53,2.83.93,2-3.14,5.06-1.81.45-.68-1.52-.67-1.07-1.35l.87.29-.86-.78c.44-.35,1.53,0,2.17.4-.14.06,0,.42,0,.57,1.25,0,.73-1.84,1.15-1.86l-.88.37c.48-2.33,2.89-4,2.56-6.77l-.65-.22c-.15-2,1.34-.71,1.84-2.53l.1.14a1.38,1.38,0,0,1-.05-1.62c.41.81,1.75.12,2.15,1.09-.15-2.22-.4-1.31-1.84-3.66l1.08.38c-.62-.89-1-1.21-.79-2.13.39,1.15,1.73.46,2.33,1.85,3-.24-.49-3.7,2.95-2.45-2.07-2.43-2.34.41-2.62-.36-1.06-.22-1.51-1.87-.92-2.19.4-.47,3.85,1.34,4.65.05-.09.12.1.26,0,.37,1,0-.26-1.51,1.19-1.37-1.32-1.37.59-.69-1.31-2.12l-.32,1.46c-.08-1-2-3.18-.11-3.5a4.36,4.36,0,0,1,.78,1.45c.8.08,0-.87.85-.79,1.9,1.43-.53,1.69.5,3.41,1.06.23-.53-2.29,1.36-.49-2.36-2.35,1.18-1-.31-3.26l1.14.86c-.1-.26-.46-.92-.26-1.15l1.21,1.49c-.83-1.58,2-.54,1.79-1.67-.92,1.38-1.63-.68-2.89-.68-.39-2.78,3.75,1.14,4.5-1.13,0,.37-1.37.47-1.63-.3a3.46,3.46,0,0,1,2-.15c.63-1.41-1.34-.64-1.68-1.68,1.72.57-.15-1-.22-1.88l1.19.83c1.76-.89-2.2-2.12-.38-2.76l1.26,1.7,0-1,1.25,1.09c-.49-1.44-.07-1.48.81-1.92-1-.43-2.08-1.62-1.67-2.28,1,.07.95,1,1.41,0,.6.73,1.37,1.61,0,1.22.35.31.6.73.95,1,1.13.11,1-1,1.21-1.36a.66.66,0,0,1-.52.15l-.7-2.45a1.53,1.53,0,0,1,1.06.94c.06-.35-.35-.92-.17-1.38.88.79,1.88,1.48,1.94,2.34l-.17-2c.47.22,1.59.2,1.83.61,1-.27-.65-3,.74-3.35a1,1,0,0,1-.25-.69c.83-.69,2.53-.57,2-2.53l2.11.69c.18-1.06-2.7-.81-2.39-2.59.13-1.32,1.69.73,2.4.76-.51-1.08-1.65-3.16.36-3C62.67,105.92,62.25,106,62.19,106.31Zm6.46-10.06c.1.37.56,1.3-.22.91C67.28,95.94,68,96.27,68.65,96.25Zm8.6-16.39c.26.44-.09.49-.71.38C76.59,80,76.78,79.84,77.25,79.86Zm26.17-45,0,.07C102.68,34.87,103,34.89,103.42,34.81Zm1.2-.37a.78.78,0,0,0-.4-.45c.21.3.06.5-.2.63C104.35,34.83,104.63,34.91,104.62,34.44ZM31.9,126l.44,0C32.41,126.68,32.18,126.35,31.9,126Z"/><path class="cls-1" d="M77.48,82.71a3.72,3.72,0,0,1-.67-.42A.78.78,0,0,0,77.48,82.71Z"/><path class="cls-1" d="M58.41,112.72s0,0,0,0a1.57,1.57,0,0,0,.19.18Z"/><path class="cls-1" d="M102.26,55.08a1.72,1.72,0,0,1-.84-.18C101.68,55.14,102,55.27,102.26,55.08Z"/><path class="cls-1" d="M106.86,28.57l-.22.77c.19-.3.5-.16.78-.13C107.17,29,106.72,28.75,106.86,28.57Z"/><path class="cls-1" d="M117.48,30.47c0-.19.14-.17.08-.36l-.5-.45C116.79,30,117,30.59,117.48,30.47Z"/><path class="cls-1" d="M110.77,31.45c.91.8.92.2,1.09-.3a.09.09,0,0,1-.06.06C110.68,29.92,110.72,30.69,110.77,31.45Z"/><path class="cls-1" d="M111.91,31a.68.68,0,0,1,.29-.35C111.75,30.18,112,30.72,111.91,31Z"/><path class="cls-1" d="M105,32.88c.39,0-1-1.17-.58-.93C103.47,30.7,104.69,34.36,105,32.88Z"/><polygon class="cls-1" points="113.92 33.95 112.72 33.03 113.41 34.07 113.92 33.95"/><path class="cls-1" d="M110.47,35.94l.84-.27a.61.61,0,0,1-.23-.5C110.71,35.48,110.13,35.65,110.47,35.94Z"/><path class="cls-1" d="M111.08,35.17a.57.57,0,0,0,.26-.62A1.09,1.09,0,0,0,111.08,35.17Z"/><polygon class="cls-1" points="113.51 35.03 113.13 34.97 112.67 35.29 113.51 35.03"/><path class="cls-1" d="M104.53,41.81l-.26.92c.32.41.71.46.77.09C104.92,42.42,105,42.06,104.53,41.81Z"/><path class="cls-1" d="M109.28,42.76a3.19,3.19,0,0,1-1.09-.51l1.34,1.3Z"/><path class="cls-1" d="M107.92,44.85c.32.42.25,1.91.89,1C108.5,45.49,108.76,44.58,107.92,44.85Z"/><polygon class="cls-1" points="97.59 52.62 97.72 52.45 95.43 50.43 97.59 52.62"/><path class="cls-1" d="M95.66,65.82c1.21-.26-1.26-1.42,0-1.49-.39-.65-1.05.06-1.36-.53C94.5,64.76,94,64.71,95.66,65.82Z"/><path class="cls-1" d="M94.32,63.8a3.16,3.16,0,0,0-.15-.53A1.55,1.55,0,0,0,94.32,63.8Z"/><polygon class="cls-1" points="9.32 158.71 8.44 158.94 9.54 159.1 9.32 158.71"/><path class="cls-1" d="M10.62,160.93l-1.75-.86,1.31,1.23C10.19,161.13,10.19,160.8,10.62,160.93Z"/><path class="cls-1" d="M72.84,97.26l-.34-.32c-.46-.24-.58-.14-.82,0Z"/><polygon class="cls-1" points="66.44 103.21 66.56 103.12 64.99 102.28 66.44 103.21"/><path class="cls-1" d="M63.89,110.33c.23-.2.12-.71.36-.9C64.11,110.13,62.08,109.09,63.89,110.33Z"/><path class="cls-1" d="M132.19,160.6c.08.25.92-.7,1.11-.83C132.83,159.69,132,160.84,132.19,160.6Z"/><polygon class="cls-1" points="127.45 159.76 127.88 159.46 126.56 159.88 127.45 159.76"/><path class="cls-1" d="M125,157c-1.39,1.68,1.15.77,1,1.77l-.29.4,1.48-.93C126.49,157.83,124.93,157.82,125,157Z"/><path class="cls-1" d="M127.27,152.5c-.56.63-.81.15.09.51,0-.09.08-.14.11-.2A.7.7,0,0,1,127.27,152.5Z"/><path class="cls-1" d="M127.47,152.81c.29.25.38-.64,0,0Z"/><path class="cls-1" d="M126,151.79l.89-.1c.31-.39.11-.8.49-.9C126.73,150.66,126.41,151.05,126,151.79Z"/><path class="cls-1" d="M124.47,152.42h.41C125,152.25,125,152.15,124.47,152.42Z"/><path class="cls-1" d="M125.74,152.42h-.86c-.22.28-.75.73.35,0C124.71,152.83,125.25,152.53,125.74,152.42Z"/><path class="cls-1" d="M125.7,152.86c-.18.52-.17,1-1.06,1.07C125.49,154.48,126.54,153.4,125.7,152.86Z"/><path class="cls-1" d="M123.22,158.3,123,159l.76-.22C123.38,158.9,123.71,157.84,123.22,158.3Z"/><path class="cls-1" d="M124.89,148.67c-.38.26-.85.89-1.28,1.28l.64,0A2.11,2.11,0,0,1,124.89,148.67Z"/><path class="cls-1" d="M123.61,150l-1,.05C122.89,150.45,123.23,150.29,123.61,150Z"/><path class="cls-1" d="M122.58,153.85l1.85-.33-2,.21Z"/><polygon class="cls-1" points="123.63 146.97 124.66 146.58 123.06 147.11 123.63 146.97"/><path class="cls-1" d="M122.63,146c.84-.35,1-1.15,1.56-1.28-.35-.21-1.15,0-1.87.16C122.81,144.89,122.94,145.2,122.63,146Z"/><path class="cls-1" d="M121.24,145.05a5.6,5.6,0,0,0,1.08-.19A3.11,3.11,0,0,0,121.24,145.05Z"/><path class="cls-1" d="M122.23,149.11A2.58,2.58,0,0,0,123,148l-.88,1Z"/><path class="cls-1" d="M122.09,149l0,0c-.12-.21-.2-.36-.23-.43Z"/><path class="cls-1" d="M122.26,149.16l0,0C122.15,149.21,122.12,149.24,122.26,149.16Z"/><path class="cls-1" d="M122.55,152c-.77.19-1.81.12-2.24,1.34C121.15,152.94,121.39,152.25,122.55,152Z"/><path class="cls-1" d="M121.17,150.37l.14.65a2.71,2.71,0,0,1,1-.7Z"/><polygon class="cls-1" points="120.67 150.38 121.17 150.37 121.12 150.12 120.67 150.38"/><path class="cls-1" d="M120.9,146.59a1.08,1.08,0,0,1-1.08-.27,1.7,1.7,0,0,0,.32,1.05C120.49,147.17,121.15,146.85,120.9,146.59Z"/><path class="cls-1" d="M121.38,147.81h-.09C121.23,147.9,121.22,147.94,121.38,147.81Z"/><path class="cls-1" d="M118,143.77l-.16.18.19-.12Z"/><path class="cls-1" d="M120,147.56c0,.36.31.29.71.17a1.23,1.23,0,0,1-.55-.36C120,147.47,119.88,147.54,120,147.56Z"/><path class="cls-1" d="M120.25,144.71a4.43,4.43,0,0,0-.31.77C120.19,145.14,120.54,144.54,120.25,144.71Z"/><path class="cls-1" d="M121.52,147.52s0,0,.07,0C121.76,147.28,121.66,147.37,121.52,147.52Z"/><path class="cls-1" d="M121.52,147.52a3.88,3.88,0,0,0-.83.21,1.44,1.44,0,0,0,.6.07A2.39,2.39,0,0,1,121.52,147.52Z"/><path class="cls-1" d="M110.72,147.8c1-.66,2.28-.73,1.61.51,1.08-.05,4-2.67,5.47-4.36a2.27,2.27,0,0,1-1.74.5c-.41.55-.44,2-1.61,2.19-1-.29,0-.78.24-1.46-1,1.13-2.35.42-4,1.83l1,.13C111.44,147.35,110.85,147.45,110.72,147.8Z"/><path class="cls-1" d="M118.37,144.93l.27.11a3.88,3.88,0,0,1,.8-1.63,2.63,2.63,0,0,0-1.45.42l.58,1.07Z"/><path class="cls-1" d="M119.29,145.92c-1.15.62-1.94.47-2.85,1.6.5.53,1.17-.24,1.88-.23-.95-.74.77-.16.86-1.27a1.2,1.2,0,0,1,.64.3,3.78,3.78,0,0,1,.12-.84l0,.07h0l0,0c-.1.13-.16.2-.12.1s0,0,0,0-.29.18-.42.25c0-.43.24-.24.42-.25l.16-.1v0l-1.25-.51C118.64,145.35,118.85,145.57,119.29,145.92Z"/><path class="cls-1" d="M117.74,154.55a.92.92,0,0,1,.22-.22C117.78,154.37,117.68,154.42,117.74,154.55Z"/><path class="cls-1" d="M118.05,153.68c.19,0,.64-.31.72,0-.16.43-.49.39-.81.66.37-.08,1.09-.12,1.25-.92l-.19.05a5,5,0,0,1,1.13-2.17A18.33,18.33,0,0,0,118.05,153.68Z"/><path class="cls-1" d="M118.35,150l-1.1-.39-.59,1.08.52-.43C117.32,150.81,117.9,150.21,118.35,150Z"/><polygon class="cls-1" points="118.42 143.31 119.6 142.61 117.71 143.29 118.42 143.31"/><polygon class="cls-1" points="117.55 142.38 118.55 141.73 117.77 141.87 117.55 142.38"/><path class="cls-1" d="M63.73,91.63h-.45A1,1,0,0,0,63.73,91.63Z"/><path class="cls-1" d="M65,93.28l.48-.33C65.17,93.08,65,93.2,65,93.28Z"/><path class="cls-1" d="M100,116.19c.69-1,1.86-2.33.77-1.55l-1,.83C100.1,115.6,100.11,115.87,100,116.19Z"/><path class="cls-1" d="M81,102.6l-.24.34,1.17-.51Z"/><path class="cls-1" d="M76.52,105.57l.34-.94A2.69,2.69,0,0,0,76.52,105.57Z"/><path class="cls-1" d="M55.3,83.92l-1.21.63C54.44,84.93,54.79,84.32,55.3,83.92Z"/><path class="cls-1" d="M109.83,131.93a1.77,1.77,0,0,0,.15-1.19C109.6,131.51,108.86,132.43,109.83,131.93Z"/><path class="cls-1" d="M74.9,83.46a1.23,1.23,0,0,0-.78.31A1,1,0,0,0,74.9,83.46Z"/><path class="cls-1" d="M109.4,129.86c-.07.12-.09.21-.15.33a1,1,0,0,1,.73.55C110.27,130.16,110.35,129.66,109.4,129.86Z"/><path class="cls-1" d="M27.08,54a1.35,1.35,0,0,1,0-.18C27,54,27,54,27.08,54Z"/><path class="cls-1" d="M26.42,36.12a1.24,1.24,0,0,1,.46.25C26.86,36.24,26.74,36.15,26.42,36.12Z"/><path class="cls-1" d="M115.11,137.91c.22.17.14,0,0,0Z"/><path class="cls-1" d="M111.62,141.91a2,2,0,0,0-.58.27A2.23,2.23,0,0,1,111.62,141.91Z"/><path class="cls-1" d="M101.13,132v0C101,132.19,101,132.15,101.13,132Z"/><path class="cls-1" d="M114.85,138.57a1.35,1.35,0,0,0,.12-.5A1.64,1.64,0,0,0,114.85,138.57Z"/><path class="cls-1" d="M115.33,138.18a.93.93,0,0,0,0,.26C115.55,138.35,115.65,138.25,115.33,138.18Z"/><path class="cls-1" d="M114.84,137.64a.63.63,0,0,1,.13.43c0-.09.09-.15.14-.16A3.31,3.31,0,0,1,114.84,137.64Z"/><path class="cls-1" d="M45.54,66.8a.93.93,0,0,1,0-.13C45,66.86,45.15,66.88,45.54,66.8Z"/><path class="cls-1" d="M84.77,117.76h.07v-.06Z"/><path class="cls-1" d="M83.41,117.51c1.58-.58,1.55-.27,1.44.18l2.92-2.38Z"/><path class="cls-1" d="M60.24,88.06l-.45,1.27c-2,.63-1.88-.24-2.71,1.31,3.17-2.58,2,1.72,5.18-.83l-.37.9c0-.13-.25,0-.3-.11-.94,1.92,2.67-1.4,3-.16a1.14,1.14,0,0,1-.81,1.19l1.33,0c.1.25-.48.65-.58.41l1.1.81-.1.07a15.31,15.31,0,0,1,2.11-.65c-.24.63-.44.14-.78.53l1.23,0c-.63.9-1.81,1.07-2,.58-2.72,3.11,1.18-.17.26,2.49l-.83-.22c-1.52,1.8-.53,1.7-1.17,3.2.48-.61,1.85-3.49,3.14-3.51-.1.37,0,.69.89.52-1.13.91-.59,1-.2,1.37L66.6,98.38c.79.1,1.53-.55,2.41-.82.25.61-.83,1.63-1.72,2.53.38,1,1.44-2,2.46-1.31-.06,1.12.92,1.11,2.45,1.21-.16.87-1,.63-1.3,1.14l1.54-.52c0,.12-.35.37-.55.5.74,0,1.54-1.14,2.38-.91,1.79-1.13-1.57,3,.86,2.25-.31.5-1,.63-1.55,1.13a10.85,10.85,0,0,0,3.79-.37l-.51,1.42c.79-1.35,2.62-1.75,4.16-2,.43-.59.8-1.11,1-1.38l1.49.28a3.93,3.93,0,0,1-1.52.93c.17,0,.34-.07.49-.12A4.26,4.26,0,0,1,80.06,104l.72-1a13,13,0,0,0-3.15,1.76,1.06,1.06,0,0,1,.63,0,2.6,2.6,0,0,0-.69.41c-.14.15.27,0,.77-.16l-1.57,1.47.72-.46-.23,1.94c2.34-.46,5.42-1.59,7.1-.78-1.51.59-2.13,1.43-3.66,2.49,1.34-1.51-1.41-.53-1.57-1.44.09.48-.69.92-1,1l2.32.17c-1.25.86-.74.92-1,1.6,2.27-2,2.27-.26,3.38-.3-.8.62-1.72,1.1-2,.35-1.36,2,3.5-1.18,2.4.59-.13-.13-.06-.3-.52-.07,1-.17,1,1.09.14,1.4l-.12-.14A2.91,2.91,0,0,0,87,114.48c-.26.2-2.62,1.61-3.09,1.85l8.32-3.07c-1.92,1.08-5.82,4.61-7.41,4.49-.1.41-.2.9.78,1,.15-.34,2.35-2.19,2.67-2.08-1.61,2-.8,1.16-2,3.08.23-.51,3.26-2.16,3.43-1.71-.47.23-2.8,1.93-3.19,2l3.45-.91a9.2,9.2,0,0,0-3.06,2.29c.49-.47.51.86.95.93l.39-.84c.29,1.37,4.67-1.53,5.24-.34-.67.25-3.8,2-3.79,2.81,1.61-.7,7.69-3.43,9.44-3.18l-.71.73,1.43.13a94.22,94.22,0,0,1-10.15,3.1c-.39.84-.9.76-.42,1.32a1.15,1.15,0,0,1-1.56.29l.43,1.75c1.65-1.16,2.41,0,3.78-1l-2.76-.41c1.64-1.17,5.38-2.23,5.75-1-.51.69-3.14,1.76-3.69,2.15.67-.25,1.74.24,1.39.6l-1.19.16c-.26,1,2.85-.53,1.68,1.2,0,.31-1.73,2.12-.7,1.51a55.15,55.15,0,0,1,9.23-6.26,17.25,17.25,0,0,1-1.82,3.32c-1.27,1.37-4,1.76-5.08,2.93a4.42,4.42,0,0,1,1.43-.47c-.24.51-1.5.83-.94,1.23,1.77-1,.56,1.2,1.61-.68.83.21,0,.79.49,1.36a9.09,9.09,0,0,1,5-1.68,5.88,5.88,0,0,0-1.17,1c.55,1.18.15,2.27.79,3.29-.35.37-.53,1.18-1.4,1.46.39-.06,1.06-.3,1.31,0-1.08,1.57-.69-.54-2.16,1.08,1-.61,1.9-.09,2.81-.06,1.44-1.15-.38-1.21-1.29-1.25,2.11-1.39,4.84-2.08,6.5-1.69,1.07.48-1.13,1.27-.73,1.21.66,1.81,4.56-1.14,3.9,1.16-1,1.41-2.65,1.82-3.54,2.58-1-.33.16-1.61-.2-2l-.26,1c-.59.09-1.23-.14-1-.64-.91,1.23,1.53,2.78,1.26,4.73.59-.09,1.3,0,1.72-.59l-.45-.24c.84-1.08,2-.32,2.14-1.13,1.11,0,2.67-.28,2.55.84l-1.42,1.18c.43-.32.58-1.08,0-1,.87-.18-1.3,2.51.91,1.44l.69-1.22c1.11,0,3.14-.55,3.1.39,1.28-1.33-.27,0,1.15-1.68-1.89,1.9-1-1.61-2.86.58,1.71-1.86.32-1.38,1.65-3.16-.49.36-.81.87-.92.18a4.27,4.27,0,0,1-.52.19.15.15,0,0,1,0-.06l0,.07c-.09,0-.11,0,0,0a3,3,0,0,1-.58.79c-1.32.53-1.86-.32-2.65-.2,0-.47.67-.26,1.08-.79l-1.17.18c1.08-.8,1.29-2.08,2.44-1.79l-.4-.69c.37-.82.26-1.51-.43-1.53,0-.47-1.77.05-.71-.27L111,133.8l.27-.2c-.53-1.12-3.26-.89-2-3.41-.51-.17-1.1-.3-1.16-1.1l.9-.75c-.63-.23.1-2-1-1.51,2.31-2.2-.86-2.57-.9-3.67l-1.3.8c-.29-.6-1-.9-2-1.25l-1.1.78c-1.31,0-.18-2-.9-2.9.47-.22.51.09.36.43,1.82-2.78-3.38-1.15-2.2-3.38-.57,0-.55-.25-.39-.62a.13.13,0,0,0,.1,0,.31.31,0,0,0,0-.12c.12-.24.27-.5.36-.74a2.64,2.64,0,0,0-.4.69,1.89,1.89,0,0,0-1-.49l1.12-.92s0,0-.08,0c.26-.58-.72.15-1.53.9a3.17,3.17,0,0,0-1,.1c1.8-1.52-1.15-.33.71-2-1.14.48-1.73-1-4,.32.26-.2.34-.37.46-.22,0-.49,0-1-.74-.86l1.43-1.16-2.52.68a3.44,3.44,0,0,1,2.51-2c-2.5.2-1.25-.37-3.62,0l1-.63c-.25-.29-1.9.13-1.22-.62.69-1,.16-1.88-.47-2.91a5.17,5.17,0,0,1-1.2-3.63c-2.59,2.38.69-1.73-1.56-.22.59-.58.8-1.1,1.58-1.24-1.3-.42.1-2.13-2.2-1.39.59-.59,1.12-.53,1.45-.91-.2,0-.79.15-.47-.24s.66-.28,1.06-.35c-.8-.83-2.91.59-4.88,2,.57-1.13.27-1.26-1.24-.65.51-.63,1-1.38,1.61-1-.14-.38-.51-2.61-2.07-1.49.32-.39-.21-.53-.45-.48-.43-.77-.35-.93-1-1.5l-.1.37c-2.05,1.14-.85-.25-1.5-.63l.2-.13c.35-2.28-1-.05-.51-2.46l-1.08,1c-2.53,1.79.59-2.22-.91-2.21l-.44.76c-1.14.27,2.43-3.69,2.41-4.33.14-.26.45-.14.7-.14.6-2.17-1.58,1-2.54.55.68-.78,2.17-1.44,1.9-2.07.43-.78-3.78.57-2.83-1.36-.48.65-1,1.3-1.71,1.31-.64-.36,1.09-3.34-1.22-2.25a1.79,1.79,0,0,1,.39-.49c-.83,0-1.92-.66-3.15,0,3.48-3.58-4-1-.47-3.93l-1.26-1.08.38-.27c-.46-1-1.53-.56-2.6-.12.07-.38.51-.53.71-.67-.31-1.77-.56-1.77-3.12-1.22l1-1.08c-.88.32.26-3.2-2-3.17a1.7,1.7,0,0,1,.6-.32c-2.4-.09.31-5.8-4.1-2.58l-1.74.09c.67,1.34-1.86,1.44-2.12,2.49-.61-.2.2-2.18.88-1.86l-.13.26c2.24-1.74-.48-2,.95-3.28-2-2-2.86-5-4.63-7L52,61.7,51.4,61c.19-.53,1-1.44,1.39-.91.64-1.12-1.52,0-1.88.27-.28-1.54,2.18-1.44,1.94-1.76l-.5-.27-.1.27c-1,.32-1.65,1-2.13.32,0-.66.77-1.14.69-1.34.11-.11.11-.21-.17-.26l-.7-1-.89,1.56c-1,.24-.71-.84-1.71.94C48.92,56.09,45,55,45.29,54a1.85,1.85,0,0,1-2.43-.83c-.09.42-1.34,1.92-1.72,1.22,3-2.73.19-2.22,1.71-4.75-.91,1.78-1.92-1.14-3.14,1.44-.24-.67,1-1.12,1.29-2.15-2.17.11-1.77-3-3.54-3.9-.38.37-.68,1.18-1.51,1.5l1-2.63c-.46-.06-2.29,2-1.58.22-.22.4-.56,1-.86,1-.5-2.2-2.28-3-3.87-4.08a5.5,5.5,0,0,1-2.88-5.36c-.26,1.11-.59,1-.91.75,0,.35-.84,1-1.26,1.58l.07-2.53c-1.49,1.34-1.38-1-2.71.39l.59,0c-1.92,1.31-2.46,4.43-4.37,6.57,2.19-1.49-1,4.11,2.29,2.07-.18.62-.77.57-1.09,1.17,1-.75,1.46-.72,1.62.13l-.25.19c1.62,1,1.43,2.45,2.49,4.43l.82-1.17c.22.44,0,.83-.08,1.24,1.81-1.28-.88-.92,1-2.4-1.44,2.56,2.39,2.13.5,4.87.51.48.94-1.36,1.45-.88l-.46.78.9-.73c.21.44-.36,1.42-.85,2,0-.14-.37-.06-.5-.09-.26,1.18,1.47.84,1.39,1.23l-.12-.85c2,.64,2.88,3.07,5.45,3l.35-.58c1.88,0,.32,1.3,1.85,1.93l-.16.08c.69-.28,1.22-.24,1.47.11-.82.3-.52,1.62-1.49,1.89,2,.09,1.26-.23,3.71-1.33l-.6,1c1-.49,1.34-.85,2.09-.52-1.12.25-.82,1.56-2.21,2-.54,2.86,3.45-.1,1.48,3,2.69-1.67.2-2.2,1-2.38.45-1,2.06-1.22,2.2-.63.32.42-2.15,3.43-1.19,4.3-.08-.1-.25.06-.33,0-.22.89,1.42-.08.94,1.24,1.55-1.08.47.62,2.22-1L43.86,66c.91,0,3.34-1.47,3.17.27a4.72,4.72,0,0,1-1.49.57c-.27.72.77.12.5.86-1.77,1.6-1.4-.66-3.19.1-.47,1,2.18-.24.1,1.31,2.7-1.93.6,1.19,3,.07l-1.06,1c.26-.06.94-.32,1.09-.11l-1.64,1c1.62-.59,0,1.94,1,1.83-1-1,1-1.42,1.34-2.58,2.6,0-2,3.32-.13,4.25-.33,0-.07-1.31.69-1.46a3.26,3.26,0,0,1-.38,1.88c1.11.73.92-1.15,1.94-1.36-.95,1.51,1,0,1.74,0l-1,1c.34,1.72,2.47-1.78,2.57,0l-1.86,1,.86.15-1.3,1c1.4-.28,1.34.11,1.5,1,.63-.82,2-1.71,2.48-1.26-.33.91-1.18.75-.4,1.29-.81.46-1.8,1.06-1.09-.14-.38.29-.81.46-1.19.75-.39,1,.66,1,.9,1.27A.56.56,0,0,1,52,79l2.39-.35a1.76,1.76,0,0,1-1.12.85c.3.1.91-.21,1.28,0-.95.71-1.83,1.54-2.62,1.5l1.83.07c-.33.41-.61,1.43-1,1.6-.05,1,2.86-.23,2.81,1.08a1,1,0,0,1,.69-.15c.4.84-.19,2.39,1.72,2.12l-1.21,1.83c.9.31,1.48-2.35,3-1.84,1.15.3-1.12,1.45-1.35,2.09,1.12-.33,3.32-1.1,2.6.69C60.45,88.55,60.54,88.17,60.24,88.06Zm7.2,7.23c-.36,0-1.33.32-.76-.33C68.11,94.09,67.6,94.73,67.44,95.29Zm12.25,10.18c-.47.17-.42-.16-.13-.69C79.77,104.86,79.85,105.06,79.69,105.47Zm32.79,30.66-.07,0C112.63,135.47,112.53,135.73,112.48,136.13Zm0,1.11a.89.89,0,0,0,.52-.3c-.34.16-.47,0-.52-.25C112.2,137,112,137.2,112.47,137.24ZM50.36,57.85l-.14.4C49.63,58.25,50,58.06,50.36,57.85Z"/><path class="cls-1" d="M77,105.23a4.35,4.35,0,0,1,.59-.53A.93.93,0,0,0,77,105.23Z"/><path class="cls-1" d="M55.53,83.8s0,0,0,0a1.7,1.7,0,0,0-.22.15Z"/><path class="cls-1" d="M94.32,132a1.69,1.69,0,0,1,.42-.72C94.44,131.46,94.24,131.7,94.32,132Z"/><path class="cls-1" d="M117.22,139.81l-.64-.26c.22.19,0,.45-.09.7C116.76,140,117.1,139.67,117.22,139.81Z"/><path class="cls-1" d="M112.91,149.15c.2,0,.13.14.32.1l.53-.42A.5.5,0,0,0,112.91,149.15Z"/><path class="cls-1" d="M113.6,143c-1,.74-.42.8,0,1,0,0,0,0,0-.06C115,143.07,114.31,143,113.6,143Z"/><path class="cls-1" d="M113.69,144.07a.45.45,0,0,1,.25.29C114.52,144,114,144.16,113.69,144.07Z"/><path class="cls-1" d="M113.78,137.75c-.14.33,1.36-.78,1-.41C116.19,136.64,112.51,137.34,113.78,137.75Z"/><polygon class="cls-1" points="110.52 145.6 111.66 144.61 110.53 145.12 110.52 145.6"/><path class="cls-1" d="M109.54,142.27l0,.78a.69.69,0,0,1,.53-.14C109.9,142.54,109.9,142,109.54,142.27Z"/><path class="cls-1" d="M110.1,142.91a.45.45,0,0,0,.5.3A.83.83,0,0,0,110.1,142.91Z"/><polygon class="cls-1" points="109.62 145.12 109.76 144.77 109.58 144.32 109.62 145.12"/><path class="cls-1" d="M105.78,136.19l-.76-.37c-.47.22-.63.56-.3.67C105.11,136.44,105.43,136.55,105.78,136.19Z"/><path class="cls-1" d="M103.57,140.3a3.7,3.7,0,0,1,.77-.9l-1.56,1Z"/><path class="cls-1" d="M102,138.77c-.47.22-1.82-.07-1.21.64C101.28,139.19,102.05,139.56,102,138.77Z"/><polygon class="cls-1" points="97.99 128.27 98.11 128.42 100.66 126.73 97.99 128.27"/><path class="cls-1" d="M86.62,124.21c-.15,1.11,1.68-.87,1.34.28.71-.23.28-.94.91-1.11C88,123.37,88.16,122.91,86.62,124.21Z"/><path class="cls-1" d="M88.87,123.38a3.68,3.68,0,0,0,.53,0A1.59,1.59,0,0,0,88.87,123.38Z"/><polygon class="cls-1" points="25.88 33.53 25.85 32.68 25.48 33.7 25.88 33.53"/><path class="cls-1" d="M23.61,34.59,24.74,33l-1.38,1.14C23.52,34.16,23.81,34.19,23.61,34.59Z"/><path class="cls-1" d="M65.32,98.92l.4-.26c.34-.38.29-.51.19-.75Z"/><polygon class="cls-1" points="61.82 92.33 61.87 92.45 63.08 91.14 61.82 92.33"/><path class="cls-1" d="M56.14,89.1c.11.24.6.2.71.44C56.25,89.34,57.76,87.61,56.14,89.1Z"/></svg>