<svg id="Layer_1" data-name="Layer 1" xmlns="http://www.w3.org/2000/svg" width="90mm" height="60mm" viewBox="0 0 255.12 170.08"><defs><style>.cls-1{fill:#704621;}</style></defs><path class="cls-1" d="M218.53,16.79c.3.17.46-1.08.56-1.29C218.48,15.66,218.48,17.11,218.53,16.79Z"/><path class="cls-1" d="M212.67,18.52l.19-.49-1,1.1C212.13,18.91,212.4,18.71,212.67,18.52Z"/><path class="cls-1" d="M207.76,17.69c.14,2.2,1.83-.05,2.59.84l.06.5.69-1.63C210,17.49,208.42,18.4,207.76,17.69Z"/><path class="cls-1" d="M205.75,12.73c.06.85-.67.64.59.34,0-.1-.05-.16-.08-.23A1.49,1.49,0,0,1,205.75,12.73Z"/><path class="cls-1" d="M206.26,12.84c.54,0-.25-.73,0,0Z"/><path class="cls-1" d="M203.75,13l.79-.66c-.09-.5-.7-.69-.42-1C203.34,11.66,203.44,12.16,203.75,13Z"/><path class="cls-1" d="M202.9,14.49l.4-.27C203.26,14,203.17,13.92,202.9,14.49Z"/><path class="cls-1" d="M204.14,13.65l-.84.57c.06.35,0,1,.38-.2C203.54,14.64,203.76,14.06,204.14,13.65Z"/><path class="cls-1" d="M204.53,14c.33.51.8.86,0,1.51C205.89,15.41,205.9,13.89,204.53,14Z"/><path class="cls-1" d="M207.19,19.85l.41.7.54-.64C207.87,20.22,207.26,19.18,207.19,19.85Z"/><path class="cls-1" d="M199.51,11.42a15.3,15.3,0,0,0,.1,1.82l.57-.48C200,12.43,199.48,12.1,199.51,11.42Z"/><path class="cls-1" d="M199.61,13.24l-.84.71C199.45,14.1,199.61,13.74,199.61,13.24Z"/><polygon class="cls-1" points="202.5 16.83 203.94 15.35 202.26 16.83 202.5 16.83"/><polygon class="cls-1" points="196.55 11.11 197.08 10.09 196.17 11.61 196.55 11.11"/><path class="cls-1" d="M194.58,11.12c.39-.85-.34-1.52,0-2-.55.11-1.06.84-1.52,1.49C193.57,10.24,194,10.35,194.58,11.12Z"/><path class="cls-1" d="M192.36,11.53a5.9,5.9,0,0,0,.75-.94A2.78,2.78,0,0,0,192.36,11.53Z"/><path class="cls-1" d="M197.49,13.61a2.09,2.09,0,0,0-.49-1.35l.19,1.3Z"/><path class="cls-1" d="M197.2,13.6v0a5.06,5.06,0,0,1-.64-.13Z"/><path class="cls-1" d="M197.57,13.62h-.08C197.51,13.74,197.52,13.78,197.57,13.62Z"/><path class="cls-1" d="M200.64,15.44c-.52.65-1.52,1.35-.74,2.51C200.31,17.11,199.86,16.43,200.64,15.44Z"/><path class="cls-1" d="M197.79,15.25l.78.36c0-.33-.08-.84.17-1.17Z"/><polygon class="cls-1" points="197.36 15.62 197.79 15.25 197.5 15.12 197.36 15.62"/><path class="cls-1" d="M193.68,12.8a1.5,1.5,0,0,1-1.22.63,3,3,0,0,0,1.37.47C193.93,13.5,194.18,12.79,193.68,12.8Z"/><path class="cls-1" d="M195.38,13.3l-.08.06C195.34,13.48,195.37,13.52,195.38,13.3Z"/><path class="cls-1" d="M188.21,13.17l0,.24,0-.22Z"/><path class="cls-1" d="M193.89,14.14c.33.27.56,0,.79-.4a2.22,2.22,0,0,1-.85.16C193.79,14.07,193.78,14.19,193.89,14.14Z"/><path class="cls-1" d="M191.13,12.05a4.78,4.78,0,0,0,.56.74C191.54,12.38,191.22,11.72,191.13,12.05Z"/><path class="cls-1" d="M195.21,13l0-.05C195.17,12.66,195.17,12.8,195.21,13Z"/><path class="cls-1" d="M195.21,13a3.35,3.35,0,0,0-.53.74,1.76,1.76,0,0,0,.62-.38A1.58,1.58,0,0,1,195.21,13Z"/><path class="cls-1" d="M186.57,21.33c.1-1.19,1.05-2.25,1.75-.92.8-.85.52-4.78-.06-7a1.94,1.94,0,0,1-.9,1.65c.26.66,1.69,1.62,1,2.65-1.07.55-.83-.47-1.31-1.12.36,1.5-1.42,2.11-1.28,4.29l.94-.73C186.68,20.49,186.33,21,186.57,21.33Z"/><path class="cls-1" d="M189.78,13.62l.34-.13c-.37-.23-.61-.72-1.06-1.68a2.19,2.19,0,0,0-.77,1.38l1.61.26Z"/><path class="cls-1" d="M191.6,13.57c-.34,1.28-1.16,1.78-.76,3.2,1,0,.73-1,1.34-1.56-1.57.23.5-.69-.58-1.49a2.08,2.08,0,0,1,.86-.29,3.79,3.79,0,0,1-.77-.64l0,.08h0v0c.06.17.07.26,0,.17l0,0a3.12,3.12,0,0,1-.1.48c-.44-.29,0-.34.1-.48l0-.19v0l-1.6.62A2.17,2.17,0,0,0,191.6,13.57Z"/><path class="cls-1" d="M198.8,20.65a1.13,1.13,0,0,1,0-.31C198.67,20.49,198.62,20.6,198.8,20.65Z"/><path class="cls-1" d="M198.25,19.81c.13-.17.27-.67.62-.51.28.42-.06.62-.09,1,.25-.32.86-.85.24-1.54l-.13.17a4.57,4.57,0,0,1-1.09-2.34A15.82,15.82,0,0,0,198.25,19.81Z"/><path class="cls-1" d="M194.9,17l-1.33.53.57,1.17,0-.68C194.86,18.33,194.77,17.49,194.9,17Z"/><polygon class="cls-1" points="188.09 12.52 188.33 11.16 187.48 13.05 188.09 12.52"/><polygon class="cls-1" points="186.39 12.61 186.5 11.43 186.02 12.13 186.39 12.61"/><path class="cls-1" d="M94.31,32.83,94,33.2A1.05,1.05,0,0,0,94.31,32.83Z"/><path class="cls-1" d="M97,32.64v-.59C96.91,32.39,96.89,32.63,97,32.64Z"/><path class="cls-1" d="M145.27,13.58c-.62-1.07-1.35-2.75-1.19-1.42l.25,1.29A.66.66,0,0,1,145.27,13.58Z"/><path class="cls-1" d="M118.24,23.6l.2.38.24-1.28Z"/><path class="cls-1" d="M118.37,29l-.79-.77A3.06,3.06,0,0,0,118.37,29Z"/><path class="cls-1" d="M79.77,35.63,79.46,37C80.14,36.92,79.78,36.28,79.77,35.63Z"/><path class="cls-1" d="M169.15,12.9a2.33,2.33,0,0,0-1.21-.77C168.53,12.87,169,14,169.15,12.9Z"/><path class="cls-1" d="M94,19a1.05,1.05,0,0,0-.23.82A.87.87,0,0,0,94,19Z"/><path class="cls-1" d="M166.57,12.17c.08.13.17.19.25.3a1.49,1.49,0,0,1,1.12-.34C167.51,11.58,167,11.25,166.57,12.17Z"/><path class="cls-1" d="M25.72,37.44c0-.06-.08-.09-.12-.16C25.59,37.46,25.64,37.47,25.72,37.44Z"/><path class="cls-1" d="M10.79,23.63a1.52,1.52,0,0,1,.62,0C11.3,23.49,11.12,23.48,10.79,23.63Z"/><path class="cls-1" d="M179.6,11.86c.36-.09.06-.15,0,0Z"/><path class="cls-1" d="M181.23,17a1.27,1.27,0,0,0-.15.62A1.71,1.71,0,0,1,181.23,17Z"/><path class="cls-1" d="M163.28,20.37h0C163.36,20.61,163.34,20.57,163.28,20.37Z"/><path class="cls-1" d="M180.13,12.45a1.67,1.67,0,0,0-.45-.39A1.72,1.72,0,0,0,180.13,12.45Z"/><path class="cls-1" d="M180.07,11.84l.31.13C180.43,11.75,180.39,11.61,180.07,11.84Z"/><path class="cls-1" d="M179.1,11.92a1.06,1.06,0,0,1,.58.14c-.07-.09-.1-.16-.08-.2Z"/><path class="cls-1" d="M54.58,33.08s0-.07-.08-.12C54.18,33.52,54.33,33.42,54.58,33.08Z"/><path class="cls-1" d="M137.18,27.71s0-.05,0-.06l-.05,0Z"/><path class="cls-1" d="M136,28.78c.4-1.66.71-1.48,1.14-1.17l-.7-3.71Z"/><path class="cls-1" d="M87.92,33.84l1,1.07c-.88,2-1.71,1.44-.72,3-.28-4.06,3.37-.74,3.09-4.81l.66.8c-.17,0-.17.22-.34.19,1.32,1.83.55-3,2-2.58.54.26,1,.81.65,1.33l1-1.12c.34.05.33.76,0,.72l1.68-.5v.12a13.78,13.78,0,0,1,.86-2.14c.49.54-.17.45,0,.95l.85-1.08c.49,1-.19,2.11-.87,2,1.3,4,.69-1.1,2.84,1.08l-.85.6c.81,2.24,1.42,1.34,2.58,2.67-.32-.72-2.39-3.41-1.46-4.52.32.28.72.38,1.19-.49.15,1.44.65,1,1.32.88l.15,1.92c.68-.63.52-1.59.87-2.5.83.11,1.15,1.57,1.46,2.8,1.34.17-1.13-2.28.37-2.8,1.16.63,1.85-.23,3-1.5.83.58,0,1.18.31,1.7l.53-1.59c.16,0,.16.49.15.73.51-.65-.14-1.91.7-2.52,0-2.13,2.14,2.89,3,.4.32.52,0,1.18.14,1.91a10.46,10.46,0,0,0,2.22-3.49l1.18,1.15c-.91-1.36-.08-3.15.66-4.63-.34-.67-.64-1.25-.82-1.52l1.3-1.16a3.13,3.13,0,0,1,0,1.78,3.9,3.9,0,0,0,.21-.48c.57.66.42,1.79.16,2.89L118.44,24a10.7,10.7,0,0,0-.26,3.62,1.07,1.07,0,0,1,.41-.56,1.85,1.85,0,0,0,0,.8c.06.19.17-.24.35-.75l.52,2.1v-.86l2,1.17c1.09-2.26,1.94-5.53,3.93-6.6-.37,1.61.12,2.57.26,4.42-.74-1.91-1.52,1-2.63.68.58.15.54,1.05.42,1.37l1.75-2c.09,1.52.5,1.1,1.06,1.68-.65-3,1.24-2.12,1.94-3.1.13,1,0,2-.93,1.88,1.24,2.16,1-3.63,2.24-1.81-.23.05-.37-.1-.42.42a.86.86,0,0,1,1.61.56l-.23,0c1.57.22,4.67-.38,4.7-2.93,0,.33,0,3.08,0,3.6L137.13,19c-.07,2.2,1.26,7.33.08,8.67.39.28.87.61,1.58-.22-.27-.3-.86-3.11-.54-3.34,1.13,2.36.75,1.25,2.06,3.23-.41-.43-.25-3.9.35-3.83a34.61,34.61,0,0,1,.11,3.75L142,23.78c-.33.63.14,2.85.53,3.78-.2-.65,1.27,0,1.64-.38l-.68-.74c1.69.39,1.32-4.85,3-4.79-.16.71-.22,4.32.65,4.68.26-1.75,1.18-8.39,2.58-9.8l.34,1,1.07-1.18A84.46,84.46,0,0,1,148,26.7c.66.75.24,1.15,1.16,1a1.11,1.11,0,0,1-.68,1.5l2.18.48c-.22-2,1.53-2.12,1.35-3.79l-2.22,2.22c-.22-2,1-5.79,2.59-5.52.43.77-.1,3.6,0,4.27.16-.71,1.38-1.41,1.54-.93l-.59,1.12c.89.7,1.25-2.75,2.37-.87.36.11,1.17,2.55,1.18,1.35A43.81,43.81,0,0,1,156,16.42a15.75,15.75,0,0,1,2.44,3.23c.66,1.78-.7,4.34-.14,5.86a3.8,3.8,0,0,1,.42-1.47c.39.46-.08,1.72.71,1.43.06-2,1.65.1.32-1.74.76-.62.85.37,1.78.26-.35-1.31.68-4.52,1.46-5.12a4.68,4.68,0,0,0,.27,1.5c1.64.13,2.54,1,4.05,1,.15.49.9,1.08.6,2,.21-.36.4-1.06.87-1.11.93,1.76-1,.29-.31,2.4,0-1.19,1.17-1.65,1.83-2.4-.23-1.83-1.55-.33-2.2.41a8.17,8.17,0,0,1,2.67-6.38c1.27-.64.57,1.63.79,1.27,2.39.42,2-4.46,4-2.61.78,1.62,0,3.21.19,4.37-1,.61-1.59-1-2.29-1l.86.75c-.32.54-1,1-1.39.49.66,1.42,4,.3,5.84,1.65.33-.54.9-1.09.65-1.74l-.59.22c-.52-1.31,1.13-1.79.4-2.4.8-.91,1.71-2.35,2.81-1.57l.16,1.85c0-.54-.69-1.12-1-.57.49-.8,1.63,2.54,2.2.15l-.74-1.3c.82-.89,1.88-2.81,2.85-2.2-.38-1.83-.23.2-.87-1.95.53,2.66-2.55-.19-1.65,2.62-.65-2.49-1.22-1.09-2.13-3.22,0,.61.31,1.16-.52.86a3.27,3.27,0,0,1-.19.53l-.06-.05.05.07c0,.09,0,.11,0,0a2.23,2.23,0,0,1,.41.93c-.44,1.39-1.76,1.33-2.21,2-.49-.29.21-.69,0-1.34l-.68,1.07c0-1.35-1.29-2.25-.11-3l-1.06-.07c-.61-.76-1.47-1.07-2-.51-.49-.29-1.24,1.51-.81.45l-1.64.85,0-.34c-1.63-.15-3.3,2.26-5.2-.13a2,2,0,0,1-2,.43l-.21-1.16c-.69.42-2.14-1.11-2.4.11-.87-3.12-3.43-.56-4.68-1.06l0,1.52a4.66,4.66,0,0,0-2.65,1.08l.13,1.34c-.85,1.14-2.36-.84-3.78-.62.07-.52.44-.41.71-.11-1.87-2.94-3.45,2.41-5.12.29-.35.51-.64.37-.93.05a.14.14,0,0,0,.09-.08h-.16c-.18-.22-.37-.47-.57-.67a2.71,2.71,0,0,0,.49.68,2.57,2.57,0,0,0-1.15.62l-.28-1.43-.1.05c-.46-.51-.3.7,0,1.77a3.45,3.45,0,0,0-.52.91c-.5-2.3-1.09.86-1.74-1.59-.21,1.23-2.14,1.07-2.18,3.63,0-.33-.18-.48.05-.52-.51-.25-1-.5-1.4.25l-.34-1.82-.87,2.55a2.81,2.81,0,0,1-.52-3.15c-1.38,2.28-1.2.91-2.34,3.16l0-1.19c-.47.09-1.09,1.73-1.45.77-1.24-2.16-5.22.14-8.11-1.71.84,3.43-1.39-1.45-1.25,1.26-.23-.81-.65-1.24-.28-2-1.3.94-2.19-1.11-2.93,1.25-.23-.81.18-1.23,0-1.71-.1.19-.37.76-.56.28s.13-.71.32-1.09c-1.4.27-1.3,2.82-1.18,5.21-.81-1.06-1.15-.86-1.52.75-.32-.76-.81-1.53,0-1.9-.5-.07-3.11-.85-3,1.06-.2-.47-.7-.07-.81.16a6,6,0,0,0-2.28.11l.33.29c-.2,2.34-.85.6-1.69,1V21c-2.16-1.46-.78.88-2.93-.82l.25,1.43c.12,3.09-1.93-1.65-2.95-.36l.49.78c-.51,1.12-2.16-4-2.82-4.34-.16-.25.17-.45.34-.66-1.82-1.66,0,1.89-1.2,2.45-.32-1,0-2.6-.8-2.71-.5-.77-2.06,3.53-3.37,1.7.32.75.65,1.51.14,2.15-.84.37-2.64-2.71-3.18-.18a1.32,1.32,0,0,1-.21-.59c-.6.7-2.05,1.27-2.32,2.64-1.1-4.88-3.88,2.81-4.32-1.75l-2,.44v-.47c-1.33-.17-1.69,1-2,2.1-.33-.28-.15-.72-.15-1-2-.74-2.16-.53-3.54,1.9l-.31-1.47c-.35.9-3-2-4.66-.17a1.38,1.38,0,0,1,.14-.68c-1.94,1.92-5.36-3.67-5.67,1.79l-1.27,1.45c1.83.27-.07,2.36.74,3.2-.68.37-2-1.48-1.12-1.83l.16.26c.09-2.84-2.31-.82-2.41-2.74-3.52.44-7-.9-10.34-.79l.52,2.17L54,24.82c-.33-.49-.51-1.69.31-1.65C53.81,22,53,24.29,53,24.77c-1.66-.79.47-2.59,0-2.61l-.65.2.16.25C52,23.54,52,24.49,51,24.44c-.65-.4-.4-1.33-.65-1.4,0-.16-.09-.23-.38,0l-1.45-.11.67,1.7c-.59.9-1.37,0-.59,1.91-1.14-3-5.45-.83-6.1-1.74a2.52,2.52,0,0,1-2.84,1.18c.29.35.52,2.29-.44,2.08.22-4-1.8-1.69-2.63-4.56.73,1.91-2.67.53-1.54,3.23-.8-.31-.08-1.5-.69-2.44-1.85,1.57-4.14-.92-6.42-.44,0,.53.35,1.34-.15,2.12l-1.2-2.65c-.45.25-.45,3-1.26,1.2.11.45.28,1.12,0,1.28-2.25-1.27-4.54-.88-6.87-.69s-4.65-.06-6.71-2.62c.53,1.08.12,1.14-.35,1.14.28.27-.11,1.3-.11,2L9.58,23.45c-.53,1.94-2-.05-2.43,1.81L7.79,25c-1,2.15.63,5.06.25,7.91,1.16-2.46,2.18,4,4,.47.3.61-.35.91-.22,1.58.48-1.2,1-1.43,1.81-.82l-.12.3c2.49-.15,3.48,1.15,6.23,2L19.6,35c.59.21.7.66,1,1,.75-2.13-1.67-.18-1-2.53.69,2.9,4.18.2,4.65,3.46.91,0-.25-1.65.67-1.62l.23.89.25-1.14c.59.19.88,1.3.9,2.06-.15-.09-.42.21-.58.27.78,1.05,2.21-.34,2.48,0l-.88-.55c2.51-.78,5.56.3,7.94-1.52l-.2-.67c1.81-1.26,1.48.7,3.48.07l-.07.17a1.57,1.57,0,0,1,1.46-1c-.48.8,1,1.5.36,2.39,2-1.4,1-1.08,2.17-3.61l.34,1.1c.4-1,.42-1.56,1.4-1.89-.78,1,.71,1.66-.15,3,2.21,2.34,3-2.59,4.13.91.8-3.12-1.9-1.62-1.39-2.3-.5-1,.68-2.34,1.34-2.06.67,0,1.34,3.88,3,3.72-.17,0-.17.23-.34.23.68.74,1.18-1.14,2,.09.32-1.89,1,0,1-2.33l-1.5.64c.83-.68,1.48-3.5,3-2.24a4.18,4.18,0,0,1-.74,1.51c.47.67.78-.51,1.27.18,0,2.38-1.84.63-2.67,2.49.52,1,1.67-1.82,1.36.77.47-3.31,1.69.32,2.66-2.26l0,1.43c.17-.24.49-.94.83-.92l-.48,1.88c.82-1.64,1.88,1.25,2.71.33-1.86.17-.54-1.68-1.4-2.66C61,32.25,60.46,37.94,63,37.07c-.33.23-1.36-.76-.87-1.45a3.44,3.44,0,0,1,1.55,1.47c1.67-.43-.37-1.44.28-2.37.71,1.69.78-.77,1.47-1.38l.12,1.44c2,.77.27-3.05,2.09-2.07L67,34.77l.86-.59-.05,1.66c.88-1.3,1.21-1,2.21-.63-.31-1-.09-2.62.75-2.75.65.81-.2,1.4,1,1.09-.19.93-.39,2.09-1,.8,0,.48-.19.93-.21,1.4.71.93,1.59.09,2,0a.7.7,0,0,1-.5-.3l1.57-2.15a1.43,1.43,0,0,1,0,1.42c.34-.19.53-.88,1-1,0,1.19.11,2.39-.58,3l1.55-1.45c.16.5,1,1.33.81,1.78,1,.61,2-2.48,3.36-1.69a1,1,0,0,1,.39-.65c1.17.16,2.33,1.5,3.54-.24l1,2c1-.58-1.3-2.54.4-3.51,1.18-.79.64,1.75,1.13,2.29.53-1.12,1.4-3.38,2.72-1.79C88.59,33.93,88.26,33.65,87.92,33.84Zm13-2.23c-.22.32-.63,1.31-.9.47C100.14,30.41,100.44,31.17,100.92,31.61Zm19.51-5.42c-.15.49-.46.28-.84-.23C119.82,25.82,120.09,25.85,120.43,26.19ZM175.68,13l0,.07C175.07,12.49,175.28,12.72,175.68,13Zm1.2.64a.75.75,0,0,0,.06-.6c-.08.37-.35.39-.66.28C176.36,13.69,176.52,14,176.88,13.63ZM50.29,23.58l.25.36C50.05,24.39,50.17,24,50.29,23.58Z"/><path class="cls-1" d="M118.36,28.37a3.61,3.61,0,0,1-.18-.77A.74.74,0,0,0,118.36,28.37Z"/><path class="cls-1" d="M79.83,35.37h0a1.23,1.23,0,0,0,0,.27Z"/><path class="cls-1" d="M158.82,26.24a1.63,1.63,0,0,1-.5-.73C158.33,25.87,158.45,26.16,158.82,26.24Z"/><path class="cls-1" d="M183.34,11.29l-.79.35c.37-.06.5.26.68.5C183.23,11.8,183.09,11.31,183.34,11.29Z"/><path class="cls-1" d="M189.62,20.52c.12-.17.23,0,.35-.18v-.67C189.51,19.68,189.15,20.21,189.62,20.52Z"/><path class="cls-1" d="M183.9,16.12c0,1.22.52.82,1.06.61a.1.1,0,0,1-.09,0C185.09,15,184.49,15.58,183.9,16.12Z"/><path class="cls-1" d="M185.09,16.7a.75.75,0,0,1,.49,0C185.67,16,185.39,16.54,185.09,16.7Z"/><path class="cls-1" d="M178.42,12.84c.25.32.18-1.55.32-1.06C179,10.24,177,13.64,178.42,12.84Z"/><polygon class="cls-1" points="184.2 20.14 184.06 18.64 183.73 19.84 184.2 20.14"/><path class="cls-1" d="M180.05,18.92l.84.43a.58.58,0,0,1,.24-.51C180.6,18.78,180,18.48,180.05,18.92Z"/><path class="cls-1" d="M181.13,18.84a.64.64,0,0,0,.69-.22A1.34,1.34,0,0,0,181.13,18.84Z"/><polygon class="cls-1" points="183.04 20.56 182.79 20.24 182.2 20.11 183.04 20.56"/><path class="cls-1" d="M170.93,18.61l-.92.44c-.09.52.17.83.51.62C170.73,19.31,171.07,19.11,170.93,18.61Z"/><path class="cls-1" d="M173.74,22.7a3,3,0,0,1-.41-1.14l0,1.86Z"/><path class="cls-1" d="M171.07,23.16c-.08.52-1.3,1.5-.15,1.37C171,24,171.92,23.58,171.07,23.16Z"/><polygon class="cls-1" points="157.18 21.2 157.42 21.16 157.25 18.11 157.18 21.2"/><path class="cls-1" d="M145.46,29.17c1.12.66.13-1.89,1.16-1.05.21-.74-.84-.69-.62-1.33C145.39,27.6,145,27.19,145.46,29.17Z"/><path class="cls-1" d="M146,26.79a4.41,4.41,0,0,0,.3-.49A1.38,1.38,0,0,0,146,26.79Z"/><polygon class="cls-1" points="8.47 21.77 7.87 21.07 8.2 22.13 8.47 21.77"/><path class="cls-1" d="M6.94,23.9,7,22,6.4,23.66C6.56,23.59,6.87,23.45,6.94,23.9Z"/><path class="cls-1" d="M103.25,35.31v-.47c-.16-.49-.32-.51-.66-.56Z"/><polygon class="cls-1" points="93.62 34.81 93.78 34.84 93.3 33.12 93.62 34.81"/><path class="cls-1" d="M85.84,37.83c.34.05.68-.38,1-.34C86.18,37.88,85.54,35.66,85.84,37.83Z"/><path class="cls-1" d="M250.71,84.17c.35.13.28-1.13.35-1.35C250.43,83.07,250.71,84.5,250.71,84.17Z"/><polygon class="cls-1" points="244.56 86.76 244.69 86.26 243.75 87.47 244.56 86.76"/><path class="cls-1" d="M239,86.49c.44,2.17,2.05-.25,3,.55l.14.5.53-1.7C241.41,86.06,239.78,87.13,239,86.49Z"/><path class="cls-1" d="M236.14,81.74c.15.84-.68.69.69.29a1.72,1.72,0,0,1-.12-.22A1.76,1.76,0,0,1,236.14,81.74Z"/><path class="cls-1" d="M236.71,81.81c.6,0-.36-.72,0,0Z"/><path class="cls-1" d="M234,82.18l.82-.72c-.15-.49-.84-.63-.57-1C233.39,80.86,233.53,81.35,234,82.18Z"/><path class="cls-1" d="M233.15,83.71l.42-.3C233.51,83.2,233.4,83.13,233.15,83.71Z"/><path class="cls-1" d="M234.45,82.78l-.88.63c.1.35.08,1,.4-.22C233.88,83.82,234.07,83.21,234.45,82.78Z"/><path class="cls-1" d="M234.92,83.12c.42.49,1,.8.16,1.51C236.59,84.4,236.43,82.88,234.92,83.12Z"/><path class="cls-1" d="M238.56,88.7l.56.65.54-.7C239.39,89,238.56,88,238.56,88.7Z"/><path class="cls-1" d="M229.13,80.88a15.85,15.85,0,0,0,.25,1.81l.6-.5C229.7,81.86,229.15,81.56,229.13,80.88Z"/><path class="cls-1" d="M229.38,82.69l-.89.75C229.26,83.56,229.41,83.19,229.38,82.69Z"/><polygon class="cls-1" points="232.91 86.08 234.4 84.49 232.64 86.09 232.91 86.08"/><polygon class="cls-1" points="225.84 80.69 226.37 79.66 225.44 81.22 225.84 80.69"/><path class="cls-1" d="M223.65,80.79c.39-.86-.45-1.49,0-2-.6.14-1.14.87-1.62,1.52C222.49,79.94,223,80.05,223.65,80.79Z"/><path class="cls-1" d="M221.19,81.25a5.68,5.68,0,0,0,.8-1A3,3,0,0,0,221.19,81.25Z"/><path class="cls-1" d="M227,83.15a2.09,2.09,0,0,0-.63-1.32l.29,1.29Z"/><path class="cls-1" d="M226.7,83.16v0c-.37,0-.62-.08-.73-.1Z"/><path class="cls-1" d="M227.12,83.16H227C227.06,83.28,227.08,83.32,227.12,83.16Z"/><path class="cls-1" d="M230.7,84.83c-.53.7-1.62,1.43-.64,2.56C230.46,86.52,229.9,85.88,230.7,84.83Z"/><path class="cls-1" d="M227.47,84.78l.91.33c0-.34-.15-.84.11-1.19Z"/><polygon class="cls-1" points="227.01 85.17 227.47 84.78 227.14 84.66 227.01 85.17"/><path class="cls-1" d="M222.71,82.51a1.68,1.68,0,0,1-1.34.64,3.55,3.55,0,0,0,1.57.44C223,83.19,223.28,82.48,222.71,82.51Z"/><path class="cls-1" d="M224.65,82.94s-.07,0-.09.07S224.65,83.15,224.65,82.94Z"/><path class="cls-1" d="M216.56,83l.06.23,0-.22Z"/><path class="cls-1" d="M223,83.84c.39.26.64,0,.88-.43a2.36,2.36,0,0,1-.95.18C222.9,83.77,222.89,83.89,223,83.84Z"/><path class="cls-1" d="M219.82,81.79a4.63,4.63,0,0,0,.66.73C220.29,82.11,219.91,81.46,219.82,81.79Z"/><path class="cls-1" d="M224.44,82.65l.06-.06C224.38,82.31,224.39,82.45,224.44,82.65Z"/><path class="cls-1" d="M224.44,82.65a3,3,0,0,0-.55.76,2.09,2.09,0,0,0,.67-.4A1.9,1.9,0,0,1,224.44,82.65Z"/><path class="cls-1" d="M214.81,91.14c.11-1.18,1.18-2.24,2-.94.91-.86.47-4.79-.22-7a1.87,1.87,0,0,1-1,1.67c.3.66,2,1.59,1.15,2.63-1.22.57-1-.45-1.52-1.1.44,1.5-1.6,2.1-1.42,4.29l1.08-.73C214.93,90.3,214.53,90.82,214.81,91.14Z"/><path class="cls-1" d="M218.34,83.38l.38-.13c-.41-.22-.7-.71-1.23-1.66a2.14,2.14,0,0,0-.84,1.39l1.83.23Z"/><path class="cls-1" d="M220.4,83.3c-.34,1.28-1.26,1.8-.76,3.22,1.1,0,.8-1,1.48-1.59-1.78.26.53-.7-.72-1.48a2.55,2.55,0,0,1,1-.3,4.81,4.81,0,0,1-.89-.63l0,.08h0v0c.07.17.09.26,0,.17l0,0a3.3,3.3,0,0,1-.09.49c-.51-.29-.07-.34.09-.49a1.08,1.08,0,0,0,0-.19v0l-1.8.65A2.85,2.85,0,0,0,220.4,83.3Z"/><path class="cls-1" d="M229,90.13a.7.7,0,0,1,0-.3C228.84,90,228.8,90.09,229,90.13Z"/><path class="cls-1" d="M228.31,89.32c.14-.17.27-.69.68-.54.34.4,0,.62,0,1,.27-.34.92-.9.16-1.55l-.14.17a4.4,4.4,0,0,1-1.41-2.29A13.79,13.79,0,0,0,228.31,89.32Z"/><path class="cls-1" d="M224.29,86.64l-1.49.58.71,1.14,0-.67C224.32,88,224.17,87.15,224.29,86.64Z"/><polygon class="cls-1" points="216.41 82.32 216.65 80.96 215.74 82.86 216.41 82.32"/><polygon class="cls-1" points="214.49 82.42 214.6 81.23 214.07 81.93 214.49 82.42"/><path class="cls-1" d="M106.46,95.12l-.43.33A1.28,1.28,0,0,0,106.46,95.12Z"/><path class="cls-1" d="M109.58,95.2l.08-.58C109.51,94.94,109.45,95.18,109.58,95.2Z"/><path class="cls-1" d="M167.5,81.24c-.61-1.12-1.28-2.86-1.23-1.52l.17,1.31A.82.82,0,0,1,167.5,81.24Z"/><path class="cls-1" d="M135.22,88.49l.18.4.44-1.24Z"/><path class="cls-1" d="M134.71,93.87,133.9,93A2.92,2.92,0,0,0,134.71,93.87Z"/><path class="cls-1" d="M89.43,96.49l-.5,1.33C89.71,97.81,89.36,97.14,89.43,96.49Z"/><path class="cls-1" d="M194.88,82.27a2.76,2.76,0,0,0-1.33-.83C194.18,82.21,194.68,83.35,194.88,82.27Z"/><path class="cls-1" d="M107.73,81.31a1,1,0,0,0-.37.79A.81.81,0,0,0,107.73,81.31Z"/><path class="cls-1" d="M192,81.4a2.92,2.92,0,0,0,.28.32,1.93,1.93,0,0,1,1.29-.28C193.08,80.87,192.54,80.51,192,81.4Z"/><path class="cls-1" d="M27.64,96.14c0-.06-.1-.09-.14-.16C27.49,96.16,27.55,96.17,27.64,96.14Z"/><path class="cls-1" d="M9.3,83.43a2.93,2.93,0,0,1,.74-.12C9.91,83.23,9.68,83.24,9.3,83.43Z"/><path class="cls-1" d="M206.81,81.59c.41-.08.07-.15,0,0Z"/><path class="cls-1" d="M208.61,86.8a1.28,1.28,0,0,0-.18.63A1.86,1.86,0,0,1,208.61,86.8Z"/><path class="cls-1" d="M187.72,89.39h0C187.8,89.64,187.78,89.59,187.72,89.39Z"/><path class="cls-1" d="M207.4,82.2a1.64,1.64,0,0,0-.5-.41A1.81,1.81,0,0,0,207.4,82.2Z"/><path class="cls-1" d="M207.34,81.58l.35.14C207.75,81.5,207.71,81.37,207.34,81.58Z"/><path class="cls-1" d="M206.24,81.64a1.26,1.26,0,0,1,.66.15c-.08-.09-.11-.16-.09-.2Z"/><path class="cls-1" d="M60.7,92.12s-.05-.06-.08-.12C60.21,92.55,60.39,92.46,60.7,92.12Z"/><path class="cls-1" d="M156.69,94.54s0,0,.05-.06l-.06,0Z"/><path class="cls-1" d="M155.22,95.49c.65-1.61,1-1.41,1.46-1.06l-.41-3.76Z"/><path class="cls-1" d="M99,95.47l1,1.18c-1.23,1.92-2.12,1.25-1.17,2.9.15-4.08,4-.41,4.11-4.48l.67.86c-.19,0-.22.2-.41.16,1.3,2,1-3,2.66-2.36.58.31,1,.9.59,1.39l1.31-1c.38.08.29.79-.09.71l2-.32v.12a12.92,12.92,0,0,1,1.25-2.05c.51.59-.26.43-.13.94l1.11-1a1.34,1.34,0,0,1-1.24,1.92c1,4.07.93-1,3.14,1.37l-1,.51c.66,2.32,1.47,1.48,2.64,2.93-.27-.75-2.34-3.64-1.13-4.65.33.31.78.46,1.43-.36,0,1.45.63,1.1,1.42,1l-.06,1.92c.85-.55.79-1.52,1.3-2.39,1,.2,1.14,1.69,1.35,2.94,1.52.32-1-2.39.77-2.74,1.27.74,2.16,0,3.69-1.17.88.66-.17,1.17.15,1.72l.8-1.52c.19,0,.12.5.09.74.67-.59.07-1.92,1.12-2.43.3-2.11,2.11,3.11,3.42.72.31.55-.16,1.18-.07,1.92a10.87,10.87,0,0,0,3-3.23L133.9,93c-.9-1.45.28-3.14,1.32-4.53-.32-.7-.59-1.31-.77-1.6l1.64-1c.19.31,0,1-.25,1.77a5.11,5.11,0,0,0,.3-.46c.57.72.26,1.82-.17,2.89-.19-.38-.39-.79-.57-1.19a9.47,9.47,0,0,0-.74,3.57,1.16,1.16,0,0,1,.54-.51,1.54,1.54,0,0,0-.13.79c.05.2.23-.22.5-.71l.34,2.14.1-.84,2.11,1.36c1.55-2.14,2.91-5.3,5.35-6.15-.63,1.56-.17,2.56-.23,4.42-.63-2-1.88.82-3.12.4.65.22.49,1.1.32,1.41L142.7,93c-.07,1.52.45,1.15,1,1.79-.4-3,1.69-2,2.61-2.88,0,1-.19,2-1.29,1.77,1.19,2.28,1.63-3.5,2.8-1.56-.27,0-.42-.14-.53.37.65-.88,2.18-.15,1.8.72l-.27,0c1.79.38,5.47.11,5.78-2.44,0,.33-.29,3.07-.4,3.59l3.35-8.54c-.32,2.19.67,7.43-.84,8.64a1.26,1.26,0,0,0,1.86-.06c-.29-.32-.67-3.19-.27-3.38,1,2.46.74,1.32,2,3.43-.43-.48.12-3.91.81-3.78-.12.51,0,3.39-.27,3.74l1.79-3.33c-.44.59-.13,2.85.23,3.81-.16-.66,1.49.1,1.95-.23l-.71-.8c1.93.55,2-4.7,3.94-4.48-.25.69-.67,4.27.3,4.72.49-1.72,2.17-8.27,3.91-9.57l.31,1,1.33-1.1a69.72,69.72,0,0,1-4.58,10.11c.71.8.18,1.17,1.27,1.1.36.93-.62,1.39-.94,1.44l2.51.65c-.06-2,2-2,1.93-3.66l-2.8,2c-.07-2,1.72-5.7,3.51-5.29.44.81-.43,3.58-.4,4.25.24-.69,1.73-1.28,1.88-.79l-.78,1.06c1,.79,1.69-2.63,2.84-.68.42.14,1.18,2.63,1.28,1.44A37.29,37.29,0,0,1,179.61,85a16.58,16.58,0,0,1,2.57,3.4c.63,1.82-1.14,4.27-.59,5.84a3.29,3.29,0,0,1,.59-1.44c.42.48-.22,1.7.73,1.48.21-2,1.92.22.49-1.72.94-.56,1,.45,2.06.38-.31-1.33,1.1-4.47,2-5a4,4,0,0,0,.22,1.52c1.89.22,2.88,1.19,4.65,1.26.15.5,1,1.12.6,2,.26-.35.52-1,1.07-1.07,1,1.8-1.23.24-.48,2.39.1-1.19,1.45-1.6,2.25-2.32-.18-1.84-1.78-.41-2.58.31a7.82,7.82,0,0,1,3.39-6.25c1.49-.59.59,1.65.85,1.3,2.75.52,2.49-4.35,4.73-2.46.87,1.64-.06,3.21.11,4.38-1.22.58-1.81-1.08-2.62-1l1,.8c-.39.52-1.21.9-1.63.42.72,1.48,4.66.42,6.75,1.83.4-.53,1.07-1.07.78-1.73l-.68.21c-.58-1.32,1.33-1.76.49-2.39.94-.89,2-2.29,3.25-1.51l.18,1.85c0-.54-.8-1.13-1.17-.58.55-.79,1.87,2.56,2.53.17l-.85-1.3c.94-.9,2.13-2.81,3.24-2.19-.45-1.83-.27.2-1-1.95.61,2.66-2.89-.21-1.86,2.6-.74-2.49-1.39-1.09-2.4-3.23,0,.6.34,1.17-.6.84a4.46,4.46,0,0,1-.22.53l-.07,0,0,.07c0,.09,0,.11,0,0a2.24,2.24,0,0,1,.46.94c-.52,1.37-2,1.28-2.56,2-.56-.31.26-.69,0-1.35l-.8,1.06c0-1.35-1.42-2.29-.07-3l-1.19-.09c-.68-.78-1.64-1.11-2.26-.56-.55-.31-1.47,1.45-.94.41l-1.9.78v-.34c-1.84-.22-3.87,2.12-5.91-.37a2.48,2.48,0,0,1-2.32.3l-.17-1.17c-.81.38-2.37-1.23-2.75,0-.78-3.16-3.86-.78-5.25-1.38L181.68,81a5.91,5.91,0,0,0-3.12.88l0,1.35c-1.06,1.08-2.64-1-4.28-.93.12-.51.53-.36.82,0-1.89-3.09-4.18,2.13-5.9-.13-.45.48-.77.31-1.07,0a.23.23,0,0,0,.11-.07.52.52,0,0,0-.18,0c-.19-.24-.39-.51-.6-.73a2.66,2.66,0,0,0,.5.73,3.23,3.23,0,0,0-1.38.5L166.44,81l-.12,0c-.49-.54-.42.68-.17,1.77a3.15,3.15,0,0,0-.69.86c-.36-2.34-1.35.76-1.85-1.74-.36,1.2-2.56.86-2.88,3.4,0-.33-.16-.49.11-.5-.56-.31-1.11-.61-1.63.1L159,83.11l-1.28,2.45c-.73-1.14-1-1.79-.26-3.19-1.83,2.14-1.47.79-3,2.92l.09-1.18c-.55,0-1.45,1.61-1.76.62-1.18-2.27-6-.4-9.15-2.55.57,3.5-1.43-1.59-1.59,1.12-.17-.83-.61-1.3-.09-2-1.61.79-2.39-1.34-3.52.93-.18-.83.36-1.21.2-1.7-.13.18-.52.71-.68.22s.24-.69.5-1c-1.64.12-1.83,2.67-2,5.06-.82-1.15-1.23-1-1.85.57-.28-.78-.75-1.61.27-1.88-.57-.12-3.48-1.18-3.56.73-.17-.49-.79-.15-.95.07a7.91,7.91,0,0,0-2.65-.13l.35.31c-.52,2.31-1,.51-2.07.78l0-.24c-2.31-1.68-1,.8-3.29-1.12l.11,1.44c-.24,3.09-2-1.84-3.36-.67l.47.83c-.73,1-2-4.23-2.73-4.62-.16-.27.25-.43.48-.62-1.91-1.84-.26,1.88-1.69,2.31-.26-1,.35-2.59-.61-2.78-.47-.83-2.8,3.28-4.1,1.33.28.78.56,1.56-.1,2.15-1,.28-2.74-3-3.66-.5a1.15,1.15,0,0,1-.18-.61c-.78.63-2.53,1.05-3,2.39-.71-5-4.83,2.4-4.8-2.18l-2.39.24.06-.47c-1.53-.3-2.07.8-2.6,1.9-.36-.31-.1-.74-.07-1-2.23-.92-2.45-.72-4.32,1.57L90,83.08c-.5.87-3.23-2.32-5.41-.58a1.33,1.33,0,0,1,.24-.67c-2.45,1.75-5.92-4.1-6.79,1.32L76.46,84.5c2.11.4-.29,2.35.58,3.24-.83.33-2.15-1.61-1.14-1.9l.16.27c.36-2.82-2.61-1-2.57-2.9-4.13.17-8.18-1.37-12-1.44L61.91,84l-1.35-.11c-.36-.51-.5-1.71.47-1.63-.52-1.24-1.61,1.06-1.63,1.53-1.9-.86.71-2.56.13-2.61l-.79.17.18.26c-.62.9-.67,1.85-1.83,1.76-.74-.43-.39-1.35-.68-1.43,0-.16-.1-.23-.44-.06l-1.71-.17L55,83.4c-.74.86-1.6-.07-.79,1.88-1.19-3-6.36-1-7.08-1.93a3.25,3.25,0,0,1-3.37,1.15c.32.35.55,2.3-.57,2.07.34-4-2.07-1.71-3-4.58.84,1.9-3.16.52-1.85,3.22-.93-.31-.08-1.5-.8-2.43-2.19,1.58-4.9-.93-7.62-.34,0,.53.44,1.32-.13,2.12L28.23,82c-.54.27-.43,3.06-1.46,1.25.15.44.37,1.1,0,1.28C21.37,82,15.89,86.83,10.33,82.14c.76,1,.27,1.12-.29,1.17.37.24,0,1.31.12,2L7.83,83.4c-.36,2-2.44.2-2.63,2.1l.71-.36C5,87.4,7.39,90.08,7.33,93c1-2.57,2.92,3.7,4.58,0,.41.57-.3.93-.08,1.59.41-1.24.95-1.51,2-1l-.11.3c2.79-.37,4,.81,7.19,1.55L20.6,94c.68.18.83.62,1.16,1,.73-2.17-1.9-.08-1.25-2.47,1,2.87,4.77-.06,5.45,3.21,1,0-.34-1.63.7-1.64L27,95l.24-1.15c.69.17,1,1.27,1.09,2-.16-.09-.46.22-.64.29.91,1,2.49-.41,2.8-.08l-1-.53c2.82-.89,6.3.2,9-1.64l-.22-.67c2.07-1.27,1.69.71,4,.1l-.08.16a1.85,1.85,0,0,1,1.69-1c-.57.8,1.12,1.51.37,2.39,2.25-1.37,1.1-1.06,2.57-3.58l.36,1.11c.5-1,.53-1.55,1.68-1.86-.93,1,.75,1.69-.28,3,2.44,2.39,3.54-2.51,4.69,1,1.07-3.09-2.1-1.68-1.49-2.35-.54-1,.88-2.31,1.64-2,.77.06,1.36,3.92,3.3,3.84-.2,0-.21.22-.4.21.73.78,1.41-1.08,2.31.19.48-1.87,1.16.09,1.27-2.28l-1.77.57c1-.64,1.92-3.43,3.59-2.1a4,4,0,0,1-.95,1.47c.5.7.93-.47,1.44.24-.11,2.38-2.15.54-3.21,2.37.53,1,2-1.75,1.51.83.74-3.28,1.91.39,3.2-2.12l-.08,1.42c.21-.22.63-.9,1-.87l-.67,1.86C65,94.26,66,97.2,67,96.33c-2.13.06-.49-1.71-1.41-2.74,2.62-1.93,1.55,3.71,4.49,3-.4.2-1.51-.84-.89-1.51a3.74,3.74,0,0,1,1.66,1.58c1.94-.31-.31-1.47.51-2.35.68,1.73,1-.71,1.8-1.27l0,1.45c2.23.91.57-3,2.58-1.92l-.84,2,1-.53-.2,1.65c1.12-1.23,1.48-.92,2.59-.46-.26-1,.13-2.63,1.12-2.68.68.85-.37,1.37,1,1.16-.31.91-.64,2-1.26.72-.06.47-.3.91-.37,1.37.73,1,1.82.21,2.33.2a.82.82,0,0,1-.55-.34l2-2a1.27,1.27,0,0,1-.18,1.41c.41-.16.69-.83,1.29-1-.15,1.18-.1,2.39-1,3l1.92-1.31c.13.51,1,1.4.74,1.83,1.07.69,2.61-2.29,4-1.38a1,1,0,0,1,.52-.61c1.33.26,2.51,1.7,4.09.08L95,97.81c1.24-.48-1.21-2.65.85-3.46,1.45-.67.54,1.8,1.05,2.39.73-1.06,2-3.22,3.32-1.5C99.75,95.63,99.4,95.32,99,95.47Zm15.24-.89c-.3.3-.89,1.24-1.1.38C113.47,93.31,113.73,94.1,114.23,94.58Zm23.2-3.28c-.22.47-.56.23-.94-.32A.81.81,0,0,1,137.43,91.3Zm64.9-8.68a.16.16,0,0,0,0,.07C201.65,82.11,201.88,82.34,202.33,82.62Zm1.35.67a.69.69,0,0,0,.09-.6c-.11.36-.42.38-.77.26C203.09,83.34,203.26,83.6,203.68,83.29ZM56.26,82.43l.28.38C55.94,83.23,56.1,82.85,56.26,82.43Z"/><path class="cls-1" d="M134.78,93.25a3.43,3.43,0,0,1-.12-.79A.68.68,0,0,0,134.78,93.25Z"/><path class="cls-1" d="M89.52,96.25l0,0a1.27,1.27,0,0,0,0,.26Z"/><path class="cls-1" d="M182.11,95a1.56,1.56,0,0,1-.52-.76A.64.64,0,0,0,182.11,95Z"/><path class="cls-1" d="M211,81.08l-.89.34c.43,0,.57.27.78.5C210.91,81.59,210.76,81.09,211,81.08Z"/><path class="cls-1" d="M218.35,90.29c.13-.17.27,0,.4-.19v-.67C218.19,89.46,217.79,90,218.35,90.29Z"/><path class="cls-1" d="M211.68,85.91c0,1.22.6.83,1.22.62a.21.21,0,0,1-.11,0C213,84.83,212.36,85.37,211.68,85.91Z"/><path class="cls-1" d="M213,86.5a1,1,0,0,1,.57,0C213.71,85.81,213.39,86.33,213,86.5Z"/><path class="cls-1" d="M205.45,82.54c.28.32.23-1.55.38-1.05C206.21,80,203.82,83.3,205.45,82.54Z"/><polygon class="cls-1" points="212.04 89.94 211.88 88.43 211.49 89.63 212.04 89.94"/><path class="cls-1" d="M207.23,88.67l1,.45a.55.55,0,0,1,.28-.51C207.87,88.54,207.22,88.22,207.23,88.67Z"/><path class="cls-1" d="M208.48,88.61a.82.82,0,0,0,.8-.22A1.76,1.76,0,0,0,208.48,88.61Z"/><polygon class="cls-1" points="210.69 90.34 210.41 90.02 209.72 89.89 210.69 90.34"/><path class="cls-1" d="M196.68,88.05l-1.09.4c-.12.51.16.84.57.64C196.42,88.74,196.83,88.55,196.68,88.05Z"/><path class="cls-1" d="M199.79,92.26a2.74,2.74,0,0,1-.43-1.15L199.27,93Z"/><path class="cls-1" d="M196.66,92.6c-.12.52-1.6,1.44-.24,1.36C196.54,93.46,197.63,93.06,196.66,92.6Z"/><polygon class="cls-1" points="180.58 89.81 180.85 89.79 180.89 86.73 180.58 89.81"/><path class="cls-1" d="M166.2,96.79c1.25.76.34-1.88,1.46-.94.32-.72-.92-.76-.6-1.38C166.28,95.21,165.89,94.77,166.2,96.79Z"/><path class="cls-1" d="M167.06,94.47a2.75,2.75,0,0,0,.4-.46A1.64,1.64,0,0,0,167.06,94.47Z"/><polygon class="cls-1" points="6.26 81.87 5.42 81.25 5.98 82.26 6.26 81.87"/><path class="cls-1" d="M4.75,84.17,4.5,82.23,4.06,84C4.24,83.91,4.6,83.74,4.75,84.17Z"/><path class="cls-1" d="M116.47,98.52l.07-.47c-.13-.51-.32-.55-.7-.63Z"/><polygon class="cls-1" points="105.43 97.02 105.62 97.06 105.27 95.3 105.43 97.02"/><path class="cls-1" d="M96.15,99.25c.38.07.83-.32,1.21-.25C96.53,99.32,96.05,97.05,96.15,99.25Z"/><path class="cls-1" d="M234.5,142.1c.34.11.22-1.14.27-1.37C234.2,141,234.52,142.43,234.5,142.1Z"/><polygon class="cls-1" points="228.93 144.96 229.03 144.44 228.2 145.7 228.93 144.96"/><path class="cls-1" d="M223.71,144.93c.49,2.14,1.89-.34,2.82.42l.15.49.42-1.73C226,144.39,224.51,145.53,223.71,144.93Z"/><path class="cls-1" d="M220.93,140.3c.17.83-.6.72.65.26-.06-.09-.08-.14-.12-.21A1.63,1.63,0,0,1,220.93,140.3Z"/><path class="cls-1" d="M221.46,140.35c.55-.06-.36-.7,0,0Z"/><path class="cls-1" d="M218.93,140.83l.72-.75c-.15-.49-.8-.6-.56-1C218.35,139.53,218.5,140,218.93,140.83Z"/><path class="cls-1" d="M218.24,142.39l.37-.31C218.55,141.87,218.45,141.8,218.24,142.39Z"/><path class="cls-1" d="M219.41,141.41l-.8.67c.11.34.12,1,.37-.24C218.91,142.47,219.07,141.86,219.41,141.41Z"/><path class="cls-1" d="M219.86,141.74c.41.46.93.76.2,1.5C221.45,142.94,221.24,141.44,219.86,141.74Z"/><path class="cls-1" d="M223.44,147.15l.55.62.47-.71C224.22,147.41,223.41,146.48,223.44,147.15Z"/><path class="cls-1" d="M214.42,139.72a13,13,0,0,0,.3,1.8l.53-.53C215,140.68,214.46,140.39,214.42,139.72Z"/><path class="cls-1" d="M214.72,141.52l-.8.78C214.63,142.39,214.76,142,214.72,141.52Z"/><polygon class="cls-1" points="218.11 144.77 219.42 143.13 217.86 144.79 218.11 144.77"/><polygon class="cls-1" points="211.37 139.66 211.82 138.61 211.01 140.2 211.37 139.66"/><path class="cls-1" d="M209.34,139.85c.34-.88-.46-1.48-.1-2-.55.16-1,.91-1.45,1.58C208.24,139,208.72,139.13,209.34,139.85Z"/><path class="cls-1" d="M207.08,140.39a5.09,5.09,0,0,0,.71-1A2.84,2.84,0,0,0,207.08,140.39Z"/><path class="cls-1" d="M212.56,142.07a2.24,2.24,0,0,0-.63-1.3l.31,1.28Z"/><path class="cls-1" d="M212.25,142.1v0a5.91,5.91,0,0,1-.68-.07Z"/><path class="cls-1" d="M212.63,142.08h-.07C212.59,142.2,212.6,142.24,212.63,142.08Z"/><path class="cls-1" d="M216,143.61c-.46.71-1.44,1.48-.5,2.58C215.85,145.31,215.31,144.69,216,143.61Z"/><path class="cls-1" d="M213,143.68l.85.29c0-.33-.17-.83.07-1.18Z"/><polygon class="cls-1" points="212.61 144.09 213.03 143.68 212.71 143.57 212.61 144.09"/><path class="cls-1" d="M208.54,141.59a1.55,1.55,0,0,1-1.22.7,3.06,3.06,0,0,0,1.46.38C208.85,142.27,209.06,141.55,208.54,141.59Z"/><path class="cls-1" d="M210.34,142s-.06,0-.08.07S210.35,142.17,210.34,142Z"/><path class="cls-1" d="M202.85,142.28c0,.07.05.16.08.23a1.7,1.7,0,0,1,0-.22Z"/><path class="cls-1" d="M208.86,142.91c.37.25.59-.06.79-.46a2.15,2.15,0,0,1-.87.22C208.75,142.86,208.74,143,208.86,142.91Z"/><path class="cls-1" d="M205.84,141a4.32,4.32,0,0,0,.63.71C206.28,141.29,205.9,140.66,205.84,141Z"/><path class="cls-1" d="M210.14,141.67s0,0,.05-.06C210.07,141.34,210.09,141.47,210.14,141.67Z"/><path class="cls-1" d="M210.14,141.67a3.26,3.26,0,0,0-.49.78,1.83,1.83,0,0,0,.61-.43A2.38,2.38,0,0,1,210.14,141.67Z"/><path class="cls-1" d="M201.5,150.51c.07-1.19,1-2.29,1.85-1,.82-.89.29-4.8-.42-7a2,2,0,0,1-.87,1.7c.29.65,1.86,1.52,1.15,2.59-1.11.62-.91-.42-1.45-1,.46,1.48-1.41,2.15-1.17,4.33l1-.77C201.58,149.66,201.23,150.2,201.5,150.51Z"/><path class="cls-1" d="M204.52,142.63l.35-.14c-.39-.21-.68-.69-1.19-1.62a2.18,2.18,0,0,0-.74,1.42l1.7.17Z"/><path class="cls-1" d="M206.42,142.48c-.27,1.3-1.1,1.84-.59,3.24,1-.09.71-1.08,1.31-1.64-1.63.32.47-.72-.71-1.45a2.11,2.11,0,0,1,.89-.34,4.32,4.32,0,0,1-.85-.59s0,.05,0,.08h0v0c.07.17.1.26,0,.17s0,0,0,0a3.25,3.25,0,0,1-.07.48c-.47-.26-.07-.33.07-.48a1.36,1.36,0,0,0,0-.2h0l-1.64.71A2.41,2.41,0,0,0,206.42,142.48Z"/><path class="cls-1" d="M214.64,149a.7.7,0,0,1,0-.3C214.48,148.82,214.44,148.93,214.64,149Z"/><path class="cls-1" d="M214,148.19c.12-.18.21-.7.6-.57.34.39,0,.62,0,1,.23-.35.81-.93.08-1.56l-.11.18a4.51,4.51,0,0,1-1.4-2.24A14.81,14.81,0,0,0,214,148.19Z"/><path class="cls-1" d="M210.15,145.66l-1.37.64.7,1.12,0-.68C210.22,147,210.05,146.18,210.15,145.66Z"/><polygon class="cls-1" points="202.7 141.64 202.88 140.27 202.09 142.2 202.7 141.64"/><polygon class="cls-1" points="200.93 141.8 200.99 140.61 200.52 141.33 200.93 141.8"/><path class="cls-1" d="M100.9,156.53l-.41.34A1.32,1.32,0,0,0,100.9,156.53Z"/><path class="cls-1" d="M103.8,156.61l.07-.58C103.73,156.35,103.68,156.59,103.8,156.61Z"/><path class="cls-1" d="M157.39,141.93c-.58-1.1-1.24-2.82-1.17-1.49l.18,1.3A.74.74,0,0,1,157.39,141.93Z"/><path class="cls-1" d="M127.57,149.7l.18.4.39-1.24C128,149.12,127.78,149.41,127.57,149.7Z"/><path class="cls-1" d="M127.16,155.09l-.77-.84A3.13,3.13,0,0,0,127.16,155.09Z"/><path class="cls-1" d="M85.05,157.91l-.47,1.33C85.31,159.23,85,158.56,85.05,157.91Z"/><path class="cls-1" d="M182.77,142.28a2.45,2.45,0,0,0-1.26-.79C182.12,142.24,182.61,143.36,182.77,142.28Z"/><path class="cls-1" d="M102,142.72a1,1,0,0,0-.35.79A.83.83,0,0,0,102,142.72Z"/><path class="cls-1" d="M180.06,141.5a2.67,2.67,0,0,0,.26.3,1.73,1.73,0,0,1,1.19-.31C181.06,140.94,180.55,140.6,180.06,141.5Z"/><path class="cls-1" d="M27.57,156.83c0-.06-.09-.08-.13-.15C27.43,156.85,27.49,156.86,27.57,156.83Z"/><path class="cls-1" d="M10.83,143.7a2.17,2.17,0,0,1,.68-.1C11.39,143.51,11.18,143.52,10.83,143.7Z"/><path class="cls-1" d="M193.79,141.23c.38-.08.06-.14,0,0Z"/><path class="cls-1" d="M195.62,146.38a1.35,1.35,0,0,0-.15.63A1.63,1.63,0,0,1,195.62,146.38Z"/><path class="cls-1" d="M176.31,149.6h0C176.39,149.85,176.37,149.8,176.31,149.6Z"/><path class="cls-1" d="M194.36,141.82a1.71,1.71,0,0,0-.48-.38A1.85,1.85,0,0,0,194.36,141.82Z"/><path class="cls-1" d="M194.28,141.21a2.28,2.28,0,0,0,.33.12C194.66,141.12,194.62,141,194.28,141.21Z"/><path class="cls-1" d="M193.27,141.3a1.12,1.12,0,0,1,.61.14q-.12-.13-.09-.21A4.38,4.38,0,0,1,193.27,141.3Z"/><path class="cls-1" d="M58.37,153.35a.5.5,0,0,1-.08-.12C57.91,153.77,58.07,153.68,58.37,153.35Z"/><path class="cls-1" d="M147.61,155.45s0,0,0-.06l-.06,0Z"/><path class="cls-1" d="M146.26,156.42c.57-1.62.9-1.42,1.33-1.08l-.44-3.75Z"/><path class="cls-1" d="M94,156.91l1,1.17c-1.15,1.92-2,1.26-1.09,2.9.14-4.07,3.69-.42,3.82-4.49l.63.86c-.18,0-.21.2-.39.16,1.22,2,.9-2.95,2.47-2.37.55.32.93.91.56,1.39l1.21-1c.36.08.27.79-.08.71l1.85-.32V156A12.91,12.91,0,0,1,105,154c.47.58-.24.43-.12.94l1-1c.42,1.06-.44,2.08-1.15,1.93,1,4.07.86-1,2.93,1.35l-1,.52c.62,2.31,1.38,1.47,2.48,2.91-.26-.75-2.2-3.63-1.08-4.64.31.31.72.45,1.33-.37,0,1.45.59,1.09,1.32,1l0,1.92c.8-.55.73-1.53,1.2-2.39.89.19,1.07,1.67,1.28,2.92,1.42.31-1-2.38.7-2.74,1.18.73,2,0,3.42-1.2.82.66-.15,1.17.15,1.72l.73-1.53c.18,0,.12.51.09.75.62-.6.05-1.92,1-2.44.26-2.12,2,3.09,3.19.69.3.54-.14,1.17,0,1.92a10.66,10.66,0,0,0,2.76-3.27l1.15,1.26c-.84-1.44.24-3.14,1.18-4.55-.3-.69-.55-1.3-.72-1.59l1.51-1a2.86,2.86,0,0,1-.22,1.78l.28-.46c.54.7.26,1.81-.13,2.88-.18-.37-.37-.78-.54-1.18a10,10,0,0,0-.65,3.58,1.14,1.14,0,0,1,.5-.52,1.78,1.78,0,0,0-.12.79c0,.21.21-.22.46-.71l.34,2.14.08-.85,2,1.34c1.42-2.15,2.65-5.32,4.89-6.21-.56,1.57-.12,2.56-.15,4.42-.61-2-1.74.84-2.9.44.61.21.47,1.09.32,1.4l2.07-1.79c0,1.52.44,1.14,1,1.77-.41-3,1.55-2,2.4-2.92.05,1-.15,2-1.18,1.79,1.13,2.27,1.46-3.53,2.58-1.6-.25,0-.39-.13-.49.38.59-.9,2-.19,1.69.69l-.25,0c1.67.36,5.08,0,5.33-2.53,0,.33-.22,3.08-.32,3.59l3-8.58c-.26,2.19.74,7.41-.64,8.65.4.31.89.67,1.73-.1-.28-.31-.68-3.17-.31-3.37,1,2.44.71,1.31,2,3.39-.41-.47.05-3.91.69-3.8-.1.51.05,3.39-.18,3.75l1.6-3.37c-.4.6-.07,2.86.28,3.81-.16-.66,1.39.06,1.81-.27l-.68-.79c1.81.51,1.79-4.74,3.58-4.56-.22.69-.54,4.29.37,4.71.42-1.73,1.85-8.31,3.44-9.64l.3,1,1.22-1.13a73.71,73.71,0,0,1-4.05,10.2c.68.78.19,1.17,1.2,1.08a1.12,1.12,0,0,1-.85,1.46l2.36.59c-.1-2,1.8-2,1.71-3.7l-2.56,2.09c-.1-2,1.48-5.72,3.15-5.37.43.8-.32,3.59-.28,4.26.21-.69,1.58-1.32,1.74-.83l-.71,1.08c.93.76,1.51-2.67,2.63-.75.39.13,1.15,2.6,1.22,1.4a40.29,40.29,0,0,1-.33-11.15,17.14,17.14,0,0,1,2.46,3.34c.63,1.81-1,4.3-.41,5.85a3.37,3.37,0,0,1,.52-1.45c.4.47-.17,1.71.71,1.46.14-2,1.79.17.41-1.73.86-.58.92.42,1.93.33-.32-1.32.9-4.49,1.77-5.08a4.57,4.57,0,0,0,.23,1.51c1.77.18,2.71,1.11,4.36,1.13.15.5.94,1.09.6,2,.24-.36.46-1,1-1.1,1,1.77-1.14.28-.39,2.4.07-1.19,1.31-1.64,2-2.38-.23-1.84-1.67-.35-2.4.39a8.1,8.1,0,0,1,3-6.36c1.36-.62.59,1.64.83,1.28,2.56.44,2.18-4.42,4.31-2.59.85,1.61,0,3.21.23,4.37-1.11.61-1.71-1-2.46-1l.93.76c-.36.54-1.1,1-1.51.48.71,1.45,4.34.28,6.32,1.61.35-.54,1-1.1.67-1.74l-.63.22c-.57-1.3,1.18-1.8.39-2.4.84-.92,1.78-2.36,3-1.62l.23,1.84c0-.54-.78-1.1-1.11-.54.49-.81,1.81,2.49,2.35.08l-.83-1.27c.85-.92,1.89-2.88,2.94-2.3-.48-1.81-.24.21-1-1.91.65,2.64-2.68-.12-1.64,2.66-.77-2.46-1.32-1-2.32-3.15,0,.61.35,1.16-.53.86a3.08,3.08,0,0,1-.19.54l-.06-.05,0,.08c0,.09,0,.11,0,0a2.45,2.45,0,0,1,.44.92c-.43,1.4-1.83,1.35-2.31,2.07-.52-.29.22-.69-.06-1.34l-.71,1.08c-.07-1.35-1.39-2.24-.16-3l-1.1-.06c-.66-.76-1.55-1.06-2.1-.49-.53-.29-1.32,1.49-.87.44l-1.73.83,0-.33c-1.71-.17-3.53,2.23-5.49-.21a2.14,2.14,0,0,1-2.13.38L178,141c-.74.41-2.22-1.16-2.54.05-.8-3.14-3.6-.68-4.9-1.24l-.05,1.52a5.3,5.3,0,0,0-2.87,1l.07,1.34c-1,1.11-2.46-.95-4-.82.1-.51.49-.37.76-.06-1.81-3-3.83,2.21-5.47,0-.41.49-.71.33-1,0a.2.2,0,0,0,.1-.07.44.44,0,0,0-.17,0c-.18-.23-.37-.5-.57-.72a2.67,2.67,0,0,0,.48.72,2.79,2.79,0,0,0-1.27.54l-.2-1.45-.1,0c-.47-.53-.38.69-.13,1.77a3.22,3.22,0,0,0-.62.88c-.38-2.34-1.23.78-1.74-1.71-.32,1.22-2.37.92-2.62,3.47,0-.33-.15-.49.1-.51-.52-.29-1-.58-1.51.13l-.23-1.83-1.14,2.47a2.7,2.7,0,0,1-.29-3.19c-1.67,2.18-1.35.82-2.77,3l.07-1.19c-.51,0-1.32,1.64-1.62.65-1.13-2.25-5.61-.31-8.51-2.41.56,3.5-1.35-1.56-1.47,1.15-.17-.83-.57-1.3-.1-2-1.49.82-2.23-1.31-3.26,1-.17-.83.32-1.21.17-1.7-.12.17-.47.71-.63.22s.22-.69.46-1c-1.52.14-1.67,2.68-1.78,5.08-.77-1.14-1.15-1-1.71.59-.27-.78-.71-1.6.23-1.88-.53-.11-3.24-1.15-3.29.77-.17-.49-.74-.14-.88.08a7.05,7.05,0,0,0-2.46-.11l.32.32c-.46,2.31-1,.51-1.91.79l0-.24c-2.16-1.66-.93.8-3.06-1.1l.11,1.44c-.2,3.09-1.88-1.83-3.12-.64l.45.82c-.68,1.06-1.89-4.21-2.57-4.6-.14-.27.24-.43.44-.63-1.77-1.82-.23,1.89-1.55,2.33-.24-1,.31-2.59-.58-2.78-.44-.82-2.58,3.3-3.79,1.35.27.78.53,1.57-.08,2.16-.94.28-2.55-3-3.4-.5a1.34,1.34,0,0,1-.17-.61c-.72.64-2.33,1.06-2.77,2.4-.66-5-4.47,2.42-4.45-2.17l-2.22.25.06-.47c-1.41-.3-1.91.79-2.41,1.89-.33-.31-.09-.74-.06-1-2.07-.92-2.28-.73-4,1.56l-.18-1.49c-.47.87-3-2.33-5-.6a1.39,1.39,0,0,1,.22-.66c-2.28,1.74-5.46-4.13-6.3,1.29l-1.5,1.33c1.94.42-.29,2.35.51,3.25-.77.32-2-1.63-1-1.91l.15.27c.34-2.82-2.42-1-2.37-2.92-3.83.14-7.57-1.43-11.16-1.55l.42,2.2-1.26-.13c-.32-.51-.44-1.71.46-1.62-.47-1.25-1.5,1-1.53,1.52-1.75-.89.69-2.56.15-2.62l-.73.17.17.25c-.59.9-.65,1.85-1.72,1.74-.68-.44-.35-1.35-.62-1.43,0-.16-.09-.23-.41-.07l-1.57-.19.63,1.74c-.7.85-1.49-.09-.76,1.87-1.07-3-5.88-1.09-6.54-2a2.86,2.86,0,0,1-3.14,1.09c.3.36.47,2.31-.56,2.07.38-4-1.89-1.74-2.73-4.63.75,1.91-2.93.47-1.76,3.19-.86-.32,0-1.5-.71-2.45-2,1.56-4.52-1-7-.49,0,.53.38,1.34-.16,2.12l-1.34-2.63c-.5.26-.46,3-1.38,1.21.13.44.33,1.11,0,1.28-5-2.57-10.15,2.11-15.19-2.72.68,1,.23,1.12-.3,1.16.34.24,0,1.3.06,2l-2.11-2c-.38,2-2.26.14-2.48,2l.67-.34c-.89,2.24,1.24,5,1.11,7.85,1-2.54,2.63,3.77,4.26.13.36.59-.31.93-.11,1.59.41-1.23.91-1.49,1.84-.93l-.11.3c2.61-.3,3.72.91,6.65,1.72l-.22-1.42c.63.19.76.64,1.05,1,.73-2.15-1.76-.12-1.1-2.49.83,2.89,4.43,0,5,3.33,1,0-.28-1.65.69-1.63l.25.89.25-1.15c.63.19.95,1.3,1,2.06-.15-.09-.43.21-.6.27.82,1,2.32-.35,2.6,0l-.93-.55c2.64-.83,5.86.33,8.41-1.47l-.19-.67c1.95-1.24,1.56.73,3.7.16l-.08.16a1.67,1.67,0,0,1,1.58-.93c-.54.78,1,1.53.31,2.39,2.11-1.33,1-1,2.44-3.53l.32,1.11c.48-1,.52-1.54,1.58-1.83-.87,1,.68,1.7-.3,3,2.24,2.43,3.33-2.46,4.36,1.1,1-3.08-1.94-1.71-1.36-2.37-.49-1,.84-2.3,1.55-2,.71.07,1.21,3.94,3,3.88-.17,0-.19.22-.37.21.68.78,1.32-1.07,2.15.21.46-1.86,1.07.11,1.21-2.27l-1.65.55c.93-.62,1.81-3.4,3.35-2.05a4.28,4.28,0,0,1-.89,1.46c.45.7.87-.46,1.33.25-.13,2.38-2,.52-3,2.33.49,1,1.9-1.72,1.4.86.72-3.28,1.77.41,3-2.09L61,156.12c.19-.22.59-.89,1-.86l-.65,1.85c1-1.57,1.91,1.38,2.85.52-2,0-.44-1.72-1.28-2.75,2.45-1.91,1.41,3.72,4.14,3-.37.2-1.39-.86-.81-1.52A3.63,3.63,0,0,1,67.73,158c1.81-.3-.28-1.47.49-2.34.62,1.73.89-.71,1.69-1.26v1.45c2.06.92.54-3,2.4-1.9l-.78,2,1-.52-.2,1.65c1-1.23,1.38-.91,2.41-.45-.24-1,.14-2.62,1-2.67.63.86-.34,1.38,1,1.17-.29.9-.61,2-1.18.71-.05.47-.28.91-.34,1.37.67,1,1.69.23,2.15.21a.76.76,0,0,1-.5-.33l1.88-2a1.37,1.37,0,0,1-.17,1.41c.38-.16.64-.82,1.2-1-.14,1.18-.11,2.39-.9,3l1.79-1.31c.12.51.92,1.41.69,1.84,1,.69,2.43-2.28,3.75-1.37a1,1,0,0,1,.49-.61c1.23.26,2.33,1.7,3.8.09l.83,2.11c1.15-.48-1.13-2.66.79-3.45,1.35-.67.5,1.8,1,2.38.67-1.06,1.84-3.22,3.09-1.51C94.66,157.06,94.33,156.75,94,156.91Zm14.17-.94c-.28.3-.82,1.24-1,.39C107.41,154.7,107.65,155.49,108.12,156Zm21.54-3.48c-.2.48-.52.24-.88-.31C129,152.06,129.34,152.12,129.66,152.49Zm60-10.08,0,.07C189,141.92,189.25,142.14,189.67,142.41Zm1.27.63a.73.73,0,0,0,.07-.61c-.09.37-.38.39-.7.29C190.4,143.1,190.56,143.36,190.94,143Zm-136.59.57.25.38C54,144.4,54.2,144,54.35,143.61Z"/><path class="cls-1" d="M127.22,154.47a3.43,3.43,0,0,1-.12-.79A.7.7,0,0,0,127.22,154.47Z"/><path class="cls-1" d="M85.13,157.67s0,0,0,0a1.17,1.17,0,0,0,0,.26Z"/><path class="cls-1" d="M171.24,155.31a1.53,1.53,0,0,1-.5-.75A.64.64,0,0,0,171.24,155.31Z"/><path class="cls-1" d="M197.68,140.58l-.81.38c.39-.08.53.24.73.47C197.58,141.09,197.43,140.6,197.68,140.58Z"/><path class="cls-1" d="M204.76,149.54c.11-.18.25,0,.37-.2l0-.68C204.59,148.71,204.23,149.25,204.76,149.54Z"/><path class="cls-1" d="M198.44,145.39c.06,1.22.57.8,1.14.58h-.1C199.65,144.26,199,144.83,198.44,145.39Z"/><path class="cls-1" d="M199.72,145.93a.85.85,0,0,1,.52,0C200.31,145.21,200,145.75,199.72,145.93Z"/><path class="cls-1" d="M192.56,142.23c.27.31.17-1.55.32-1.06C193.18,139.62,191.08,143.05,192.56,142.23Z"/><polygon class="cls-1" points="198.9 149.4 198.7 147.9 198.38 149.11 198.9 149.4"/><path class="cls-1" d="M194.39,148.3l.92.41a.55.55,0,0,1,.24-.51C195,148.15,194.37,147.85,194.39,148.3Z"/><path class="cls-1" d="M195.55,148.2a.7.7,0,0,0,.73-.25A1.62,1.62,0,0,0,195.55,148.2Z"/><polygon class="cls-1" points="197.65 149.85 197.38 149.54 196.74 149.43 197.65 149.85"/><path class="cls-1" d="M184.59,148l-1,.43c-.11.51.17.83.54.62C184.37,148.7,184.74,148.5,184.59,148Z"/><path class="cls-1" d="M187.6,152.12a2.83,2.83,0,0,1-.44-1.14l0,1.86Z"/><path class="cls-1" d="M184.7,152.56c-.1.51-1.45,1.48-.18,1.36C184.62,153.41,185.61,153,184.7,152.56Z"/><polygon class="cls-1" points="169.7 150.2 169.96 150.18 169.92 147.12 169.7 150.2"/><path class="cls-1" d="M156.49,157.51c1.17.73.28-1.89,1.34-1,.28-.72-.87-.75-.59-1.37C156.53,155.93,156.16,155.5,156.49,157.51Z"/><path class="cls-1" d="M157.24,155.17a2.85,2.85,0,0,0,.37-.47A1.45,1.45,0,0,0,157.24,155.17Z"/><polygon class="cls-1" points="8.05 142.06 7.29 141.42 7.78 142.45 8.05 142.06"/><path class="cls-1" d="M6.59,144.32l-.18-1.94L6,144.14C6.13,144.05,6.46,143.89,6.59,144.32Z"/><path class="cls-1" d="M110.23,159.89l0-.46c-.11-.51-.29-.55-.65-.63Z"/><polygon class="cls-1" points="99.94 158.44 100.12 158.48 99.79 156.72 99.94 158.44"/><path class="cls-1" d="M91.31,160.68c.35.08.76-.32,1.12-.24C91.66,160.76,91.21,158.49,91.31,160.68Z"/></svg>