<svg id="Layer_1" data-name="Layer 1" xmlns="http://www.w3.org/2000/svg" width="132.83mm" height="132.83mm" viewBox="0 0 376.53 376.52"><defs><style>.cls-1{fill:#fff;}</style></defs><path d="M191.34,35.19c-86.11,0-156.16,70.05-156.16,156.15s70.05,156.15,156.16,156.15,156.15-70,156.15-156.15S277.44,35.19,191.34,35.19Zm0,237.26a81.11,81.11,0,1,1,81.11-81.11A81.1,81.1,0,0,1,191.34,272.45Z" transform="translate(-3.07 -3.08)"/><path d="M191.34,3.08C87.53,3.08,3.07,87.54,3.07,191.34S87.53,379.6,191.34,379.6,379.6,295.15,379.6,191.34,295.15,3.08,191.34,3.08Zm0,354.63C99.6,357.71,25,283.08,25,191.34S99.6,25,191.34,25,357.71,99.61,357.71,191.34,283.08,357.71,191.34,357.71Z" transform="translate(-3.07 -3.08)"/><path class="cls-1" d="M53.44,148.84l3.36-7.3,34.07,15.72,7.45-16.16,6.59,3L94.09,167.59Z" transform="translate(-3.07 -3.08)"/><path class="cls-1" d="M103.17,78.8,148,105l-7,4.83-8.19-4.9-15.89,10.9,1.62,9.4-7,4.8ZM126.31,101,112.6,92.66l2.79,15.77Z" transform="translate(-3.07 -3.08)"/><path class="cls-1" d="M171.4,51.29a23.13,23.13,0,0,1,17.12,5.44l-5,5.28A15.92,15.92,0,0,0,172,58.53a15.56,15.56,0,0,0-14.53,17.11,15.46,15.46,0,0,0,17,14.59,16,16,0,0,0,10.4-4.67l-.64-8.2-12.42,1-.56-7.1,20-1.55,1.4,18A23.41,23.41,0,0,1,175,97.47c-13.13,1-24.45-7.89-25.48-21.22S158.28,52.31,171.4,51.29Z" transform="translate(-3.07 -3.08)"/><path class="cls-1" d="M239.16,56.94c12.5,4.15,19.31,17,15.16,29.54S237,105.16,224.52,101,205.24,84,209.4,71.55,226.72,52.81,239.16,56.94ZM226.8,94.12a16,16,0,0,0,10.07-30.3,16,16,0,0,0-10.07,30.3Z" transform="translate(-3.07 -3.08)"/><path class="cls-1" d="M286.16,81.54l-.47,42.74,20.4-19.57,5.56,5.79-33.51,32.16.37-42.65-20.3,19.48-5.56-5.79Z" transform="translate(-3.07 -3.08)"/><path class="cls-1" d="M329.21,146.27l2.43,7.65L289,167.45l-2.43-7.65Z" transform="translate(-3.07 -3.08)"/><path class="cls-1" d="M90,220.33l3.12,5.78-15.46,8.32,22.81,5.33,3.69,6.85-21-4.89L72.07,264.35l-3.64-6.76L77,240.05l-6.68-1.66-9.44,5.09-3.12-5.78Z" transform="translate(-3.07 -3.08)"/><path class="cls-1" d="M119.57,264.16l-16.67,39L98.26,298l3.13-7.15L90.91,279.06l-7.47,2.28-4.61-5.18ZM104,285.22l5.31-12-12.51,3.89Z" transform="translate(-3.07 -3.08)"/><path class="cls-1" d="M135.31,280l19.62,10.33-2.76,5.25-13.81-7.27-4.29,8.14,12.6,6.63-2.76,5.26-12.61-6.64-7.24,13.77-5.82-3.06Z" transform="translate(-3.07 -3.08)"/><path class="cls-1" d="M163.61,292.58l21.86,3.74-1,5.85-15.39-2.63-1.55,9.07,14,2.4-1,5.85-14-2.4-2.62,15.33-6.48-1.1Z" transform="translate(-3.07 -3.08)"/><path class="cls-1" d="M196.22,295.73l23.06-3.57.91,5.87-16.57,2.56,1.33,8.62,15.53-2.4.91,5.87-15.53,2.4,1.54,10,16.94-2.62.9,5.87-23.42,3.63Z" transform="translate(-3.07 -3.08)"/><path class="cls-1" d="M229.77,285.73l11.68-6.26c5.05-2.71,10.89-1.37,13.45,3.4,1.66,3.1,1.43,6.34-.65,8.7,4.69-1.5,8.63.5,10.79,4.53,2.93,5.47.95,11.78-4.7,14.81L247.09,318Zm17.87,7.18a4.44,4.44,0,0,0,2-6.22,4.39,4.39,0,0,0-6.16-1.59l-5.14,2.76,4.18,7.78Zm8.92,13.29c2.92-1.57,4-4.7,2.56-7.34s-4.52-3.42-7.53-1.81l-6.44,3.46,4.92,9.17Z" transform="translate(-3.07 -3.08)"/><path class="cls-1" d="M263.91,256.58l41,11.13L300.34,273l-7.51-2.12-10.22,12L285.9,290l-4.5,5.29Zm23,12.54-12.6-3.61,5.58,11.85Z" transform="translate(-3.07 -3.08)"/><path class="cls-1" d="M279.35,239.92l5.91-13a11.65,11.65,0,0,1,15.49-6,11,11,0,0,1,6.7,10.39l17-2-3.07,6.75-15.1,1.72,0,.1-2.66,5.83,11.86,5.4-2.72,6Zm21.74-5a5.75,5.75,0,0,0-2.95-8,5.49,5.49,0,0,0-7.55,2.63l-3.11,6.83,10.71,4.88Z" transform="translate(-3.07 -3.08)"/><path d="M143,239.6c3,5.37,6.9,10.32,13.13,12.49,6.5,2.27,11.23.86,15.79-4.42,5.38-6.24,7.81-13.83,9.78-21.57,1.73-6.84,3.07-13.77,4.54-20.66,1.37-6.38,2.37-12.86,4.06-19.15,4.09-15.18,9.38-29.85,22.57-39.77,4-3,8.74-5.07,13.38-7,4.28-1.76,5.43-4.81,2.11-8-3.7-3.57-8.33-5.36-13.28-6.65a49.81,49.81,0,0,0-26.92.72c-11.47,3.35-20.91,10.12-29,18.76a114.61,114.61,0,0,0-16.6,23.14l-2,3.56-4.87,14.13c-.38,2.75-.74,5.5-1.11,8.24A73,73,0,0,0,143,239.6Z" transform="translate(-3.07 -3.08)"/><path d="M175.69,260.17c9.36,1.66,18.11-.68,26.59-4.31,13.23-5.66,23.83-14.65,32.54-26a72.56,72.56,0,0,0,14.36-32.74,95.42,95.42,0,0,0,.33-31.18c-1.21-7.32-2.77-14.56-7.23-20.8-3.29-4.61-8-6.34-11.79-3.78a36.64,36.64,0,0,0-7.16,6.28c-8.06,9.29-11.83,20.71-15,32.26-3,10.93-5.27,22.07-8.27,33-2.82,10.32-6.75,20.3-13.88,28.48-3.54,4.07-7.94,7.41-12.11,10.9-3.37,2.83-3.8,4.48-1.33,7.28.84.28,1.68.58,2.52.87C175.4,260.33,175.56,260.15,175.69,260.17Z" transform="translate(-3.07 -3.08)"/></svg>